<?xml version="1.0" encoding="UTF-8" standalone="no"?>
<!-- Created with Inkscape (http://www.inkscape.org/) -->

<svg
   width="21.503597mm"
   height="15.651757mm"
   fill="white";
   viewBox="0 0 21.503597 15.651757"
   version="1.1"
   id="svg1"
   xml:space="preserve"
   xmlns:inkscape="http://www.inkscape.org/namespaces/inkscape"
   xmlns:sodipodi="http://sodipodi.sourceforge.net/DTD/sodipodi-0.dtd"
   xmlns="http://www.w3.org/2000/svg"
   xmlns:svg="http://www.w3.org/2000/svg"
   xmlns:rdf="http://www.w3.org/1999/02/22-rdf-syntax-ns#"
   xmlns:cc="http://creativecommons.org/ns#"
   xmlns:dc="http://purl.org/dc/elements/1.1/"><defs
     id="defs1" /><sodipodi:namedview
     id="base"
     pagecolor="#ffffff"
     bordercolor="#000000"
     borderopacity="0.3"
     inkscape:pageopacity="0.0"
     inkscape:pageshadow="2"
     inkscape:zoom="0.35"
     inkscape:cx="400"
     inkscape:cy="560"
     inkscape:document-units="mm"
     inkscape:showpageshadow="2"
     inkscape:pagecheckerboard="0"
     inkscape:deskcolor="#d1d1d1" /><metadata
     id="metadata1"><rdf:RDF><cc:Work
         rdf:about=""><dc:format>image/svg+xml</dc:format><dc:type
           rdf:resource="http://purl.org/dc/dcmitype/StillImage" /></cc:Work></rdf:RDF></metadata><g
     inkscape:groupmode="layer"
     id="layer14"
     inkscape:label="Layer 7"
     transform="translate(-26.753923,-31.444076)"><path
       id="path142-6"
       style="display:inline;fill:#000000;stroke-width:0.269835"
       inkscape:label="currShip"
       d="m 35.223173,31.444076 v 0.440799 l -0.349849,0.0098 0.298173,0.335897 v 1.802474 h -0.449069 v 0.46147 h 0.313676 v 2.587956 h -1.66243 v 0.66766 h -1.018026 v 0.898653 h -1.290877 l -0.0026,3.602881 -1.87017,-0.268201 0.01395,0.07803 -0.494026,-0.605647 -1.682068,-0.02687 -0.203605,-0.02791 -0.06356,0.741557 h -0.0088 l 0.99167,2.052588 0.468189,2.866492 1.063501,0.0026 v -0.01654 l 8.262544,0.01705 v 0.0093 l 4.322217,0.0088 v -5.17e-4 l 5.084444,0.0098 v 0.0016 l 1.101225,0.0021 0.109554,-4.642094 h -0.887284 v -3.146578 h 0.961698 l 0.02584,-1.103291 -2.02365,-0.0155 -0.925524,1.886189 -0.02481,10e-4 -0.256832,0.843876 -0.05633,-10e-4 -0.641822,1.748213 -0.669209,0.02481 v -6.061129 h -0.265617 v -3.323828 h -0.19172 v 9.40201 l -2.655652,0.09922 V 40.348958 H 37.380147 V 38.689111 H 36.33525 v -1.60662 h -0.854212 v -2.587956 h 0.307475 v -0.46147 h -0.430464 v -1.901693 l 0.259415,-0.257865 -0.280603,0.0078 v -0.437182 z m -3.943945,7.573181 h 1.454175 v 1.243335 h -1.454175 z m 4.63951,0.0021 h 1.226282 v 1.231449 h -1.226282 z m 2.654101,1.499133 h 1.756999 v 1.103809 h -1.756999 z m -3.373437,1.052132 h 0.742073 v 0.605648 h -0.742073 z m -0.84646,0.0098 h 0.742073 v 0.605131 h -0.742073 z m -1.753381,0.0041 h 0.742073 v 0.605131 h -0.742073 z m 0.887801,0.0026 h 0.74259 v 0.605131 h -0.74259 z m -4.332552,0.04393 -0.02326,0.0067 0.02429,0.137976 z m -1.297596,0.480074 a 0.30115151,0.30115151 0 0 1 0.301274,0.301273 0.30115151,0.30115151 0 0 1 -0.301274,0.300757 0.30115151,0.30115151 0 0 1 -0.301273,-0.300757 0.30115151,0.30115151 0 0 1 0.301273,-0.301273 z m 14.671456,0.858862 h 0.65009 v 0.797367 h -0.65009 z m -0.89917,0.03824 h 0.709518 v 0.743623 H 41.6295 Z m -0.996321,0.0078 h 0.791166 v 0.706934 h -0.791166 z" /></g></svg>
