<?xml version="1.0" encoding="UTF-8" standalone="no"?>
<!-- Created with Inkscape (http://www.inkscape.org/) -->

<svg
   width="68.494011mm"
   height="33.95134mm"
   viewBox="0 0 68.494011 33.95134"
   version="1.1"
   id="svg1"
   xml:space="preserve"
   xmlns:inkscape="http://www.inkscape.org/namespaces/inkscape"
   xmlns:sodipodi="http://sodipodi.sourceforge.net/DTD/sodipodi-0.dtd"
   xmlns="http://www.w3.org/2000/svg"
   xmlns:svg="http://www.w3.org/2000/svg"><sodipodi:namedview
     id="namedview1"
     pagecolor="#ffffff"
     bordercolor="#000000"
     borderopacity="0.25"
     inkscape:showpageshadow="2"
     inkscape:pageopacity="0.0"
     inkscape:pagecheckerboard="0"
     inkscape:deskcolor="#d1d1d1"
     inkscape:document-units="mm" /><defs
     id="defs1" /><g
     inkscape:groupmode="layer"
     id="layer4"
     inkscape:label="Layer 4"
     transform="translate(-24.976729,-105.26438)"><path
       id="path237"
       style="display:inline;fill:#ffffff;stroke-width:0.304023"
       d="m 54.420968,105.26438 -0.189136,10e-4 -0.112138,1.74925 -0.342615,0.2837 0.158647,-1.08314 -0.821139,-0.0786 0.03307,0.28061 0.427881,0.0543 -0.0052,2.24586 h -0.378789 l -0.02894,-0.96842 -0.335896,-0.0155 0.06563,0.9219 -0.889868,0.54932 -0.211874,-0.66456 -0.349849,0.19638 c 0,0 0.123116,0.3668 0.137976,0.41082 l -4.676717,9.03149 -0.05219,-0.077 -0.333313,0.31781 0.101802,0.15089 -19.078422,9.28884 c -0.0041,-0.0553 -0.02598,-0.40078 -0.02739,-0.41135 -0.0057,-0.0434 -0.02851,-0.0535 -0.05943,-0.0455 v -5.2e-4 c -0.09275,0.0242 -0.258899,0.21859 -0.258899,0.21859 l 0.411861,6.54999 -1.105876,0.0889 -0.08527,0.51728 -0.05116,-0.25735 H 26.07537 l -0.238228,0.38809 -0.860413,4.30826 h 14.462166 v -0.001 h 6.791834 v 5.2e-4 l 44.48669,-5.2e-4 1.37356,-5.13044 1.343587,-3.48764 v -0.55656 l -0.557589,-0.52503 0.593762,-2.2381 -0.02222,-2.82567 -0.302824,-0.0724 -0.0098,2.62568 -0.346749,1.12241 -4.25452,0.86248 -5.416207,0.86507 -2.850472,0.34674 -0.0057,-0.061 -0.37052,0.032 -0.0052,0.0641 -3.601331,0.13591 0.05064,-0.33951 -0.697632,0.1726 -0.09198,1.0697 -0.650606,0.11007 -0.162264,0.32195 -0.798918,0.14624 0.649573,-1.20406 -0.405143,-0.30231 -0.142627,-0.6568 2.986898,-0.36897 0.05684,-0.31885 -3.886585,-0.23358 0.04186,-0.71158 -3.474206,-0.0579 -0.59583,0.57309 0.0072,2.10582 0.278536,0.64595 1.107426,0.2682 -0.426847,0.58291 -1.615922,-0.03 0.261999,-0.93586 -0.320911,-0.42426 -0.666109,-0.5948 -0.409794,0.42892 0.215491,0.7183 -0.176217,0.82372 -0.842326,0.18552 -0.334863,-0.47077 -0.260449,-0.11524 0.0098,-1.17926 -0.04186,-1.13119 h 0.263033 l 0.982886,-0.86352 -0.0041,-1.1653 -1.249536,-0.26045 -0.391191,-0.56069 -0.409794,0.65164 0.212907,0.48214 -0.0036,1.06144 -1.336869,0.0754 -0.07441,-1.35082 -0.23151,-1.33997 -0.321427,0.40359 -0.171566,-0.53278 0.294039,-0.59531 -0.07596,-2.30787 -0.290938,-0.30799 -0.404626,0.50953 -1.565796,-0.0971 -0.374654,-0.33022 -0.04599,-0.86403 -0.594279,-0.0718 0.04599,1.24747 -0.644922,-0.0724 0.179317,-2.37453 -0.250631,-1.16685 -0.603064,-0.0724 -0.243912,-0.96015 -1.263489,-0.23202 0.0801,1.02319 h -0.73949 v 0.5302 l 0.75396,-0.0367 0.0832,6.27662 -1.110527,0.0925 -0.03979,-0.27233 0.06563,-0.047 0.306442,-16.72508 0.187585,-0.0946 0.119373,-0.47955 -0.612366,-0.15348 -0.0801,5.12217 -0.597379,-0.0222 -0.05426,-0.54106 -0.251665,-0.0956 -0.0052,0.62477 -0.902788,-0.0351 -0.332796,-2.2686 2.207617,-2.14043 -0.390673,-0.11886 -0.147278,0.14728 -1.969389,-0.20154 -0.09043,-0.99064 0.526066,-0.63303 z m -2.370398,4.09484 3.533634,0.11627 -1.39423,1.39836 -0.211873,-1.44332 -0.154513,0.0165 c 0,0 -0.03509,1.13317 -0.05684,1.85156 l -0.831474,0.83303 z m -0.293522,0.31729 c 0.207412,0.61518 0.465818,1.38119 0.914672,2.72025 l -1.011824,1.01441 -0.375171,-0.015 -5.17e-4,0.25838 -2.645316,5.47512 0.01034,0.0336 -0.603064,-0.0884 -0.02739,-1.62625 h -0.24753 z m 1.99626,2.05569 c -0.01882,0.61634 -0.02811,0.89951 -0.05478,1.75803 l -0.33383,-0.0129 -0.333313,-1.0449 z m 0.38964,0.37207 c 0,0 0.148891,1.17518 0.178284,1.40973 l -0.289905,-0.0114 0.03049,-1.1839 z m -1.374076,0.58291 c 0.09227,0.27552 0.17241,0.51809 0.258899,0.77721 l -1.020093,-0.0398 z m -1.273307,1.1281 1.684651,0.10076 c 0.188107,0.5652 0.364187,1.09539 0.461471,1.39682 -0.140561,4.45919 -0.328148,10.20565 -0.468705,13.4245 l -1.188558,-0.51366 0.06253,-1.7601 -0.275952,-0.14935 -0.09147,-1.2423 0.201538,-0.55604 -0.0925,-1.67638 -0.279053,-0.1819 -0.09095,-1.35702 -0.49506,-0.25167 -0.05788,0.31936 -0.125574,-0.0486 1.457792,-2.66289 -0.145727,-0.0439 -1.474845,2.54403 -0.281637,-0.36639 -0.269751,0.45992 -0.163814,0.0388 -0.224276,-0.52245 -0.355017,0.0724 -0.03307,0.73277 0.456303,0.36328 0.03307,0.66663 -0.165882,0.28732 -0.123506,-0.32401 -0.465088,-0.0238 -0.01809,-3.06752 z m 2.015381,0.12143 0.173116,0.0103 c -0.0046,0.1448 -0.01082,0.33366 -0.0155,0.48317 z m 0.507979,0.0305 0.361735,0.0217 c 0.01955,0.15572 0.06583,0.5209 0.09147,0.72502 l -0.473356,0.0294 z m 0.629936,0.0382 0.82889,0.0501 -0.01705,2.32596 -0.330212,0.90692 z m 1.1498,0.0687 0.583427,0.0351 -0.123506,7.87446 -0.442351,-0.0186 -0.576709,-3.93413 0.690397,0.003 0.04858,-1.22525 h 0.347783 l -0.03256,-0.49041 -0.499195,0.0227 z m -1.819527,1.41232 0.595829,0.0413 c 0.07047,0.56084 0.114437,0.90528 0.204639,1.62057 l -0.842326,-0.0393 z m 1.649512,1.46554 v 0.55863 l -0.445451,0.13849 -0.04599,-0.31419 z m -1.700672,0.53331 0.928626,0.27543 c 0.06205,0.49106 0.0669,0.53358 0.132808,1.05368 l -0.52865,1.00304 -0.560172,-1.30121 z m -6.205306,0.0579 -0.03204,1.80661 -0.575675,-0.85369 0.599963,-0.93793 z m -0.941544,1.27021 0.895552,1.32912 -0.02997,1.67845 -0.246496,2.20968 -0.05633,0.0775 0.04393,0.0357 -0.447518,4.01423 -0.746207,1.47536 0.0078,0.005 -0.107487,-0.015 -0.232027,0.81855 0.102319,1.2144 -0.104386,0.11523 5.17e-4,0.005 -0.156063,0.0315 -0.134359,-0.5116 h -0.278536 l -0.10852,0.61392 -1.085206,-0.0165 -0.09612,-0.17932 0.883151,-0.50384 0.853694,-0.24753 -0.03307,-2.24379 -0.240812,-0.55449 -3.763078,-0.0796 -0.153479,0.66352 -3.490743,0.13333 -0.0155,0.5302 2.842721,0.0475 -0.05426,0.24753 -0.173116,0.45165 v 0.786 l 0.587561,0.98599 -1.188558,-0.15813 -0.611332,0.74879 -0.309026,-0.58084 0.239262,-0.28216 -0.0248,-0.26716 -0.727088,0.0341 0.145728,1.31775 -0.962732,-1.07849 -0.248047,0.29404 1.230933,1.44746 -0.182935,0.11731 -0.95343,-0.004 -0.05323,-0.45113 -0.417029,-0.0972 -0.04289,0.54674 -1.5012,-0.004 -0.0098,-0.4067 -0.452169,0.0455 -0.0083,0.35915 -0.780314,-0.003 -0.01344,-0.65164 0.521932,-0.14469 0.02997,-0.44235 H 34.07548 l -0.02377,1.10897 -4.238501,0.0698 1.246953,-1.46348 -0.194304,-0.28526 -1.486214,1.75959 -1.219047,-0.0367 -0.01344,0.72708 -0.189652,0.0269 c 0,0 -0.298576,-4.60074 -0.392224,-5.92884 z m 7.102925,0.35967 0.420647,0.93896 -0.468706,0.88832 z m 1.180807,0.24029 c 0.124157,0.97818 0.209299,1.63205 0.330212,2.57556 l -0.775146,-1.80093 z m -7.009908,0.19999 h 0.575159 l -0.14056,0.40411 -0.424264,0.22324 z m 6.406844,0.85059 0.70745,1.57665 c -0.439464,-0.004 -1.059894,0.005 -1.36064,0.0114 l 0.0124,-0.4718 z m -5.761922,0.0207 -0.01602,2.04121 -0.187069,-0.0103 -0.219108,0.30231 -0.06976,-2.27222 z m -0.657841,1.27279 0.04702,1.3224 -0.271301,0.37465 -0.03462,-0.55345 z m 5.756754,0.67644 1.661398,0.06 c 0.17328,1.34873 0.337956,2.63196 0.457853,3.5295 l -1.42782,0.0357 -0.104903,-1.81332 0.322978,-0.46147 h -0.886251 l 0.299723,0.42839 c 0,0 0.04543,1.45029 0.09095,1.85312 l -0.509013,0.0129 z m 2.435511,0.0475 v 0.47594 l -0.283704,-0.0739 -0.05271,-0.36174 z m -0.206706,0.92656 h 0.295072 l -0.0894,1.40198 z m 1.882572,0.14625 1.363225,0.13229 0.159163,1.2547 -1.516703,-0.063 z m 1.772502,0.14624 1.490865,0.12402 0.06356,1.21647 -1.422652,-0.003 z m 1.751314,0.0677 1.522388,0.12609 0.105937,1.29087 -1.51257,-0.0517 z m -13.617773,0.72295 0.03101,0.0253 v 0.44649 l -0.105937,0.0134 z m -0.171049,1.10949 0.116272,0.15245 -0.20929,3.23391 -0.141593,0.0739 -0.127124,0.0222 -0.03824,-1.11001 0.285771,-0.60978 v -1.02785 z m 6.047176,0.91209 2.269629,0.25787 -0.0047,0.0207 -0.08475,1.56579 0.373103,0.4036 -0.09302,1.19889 -1.37511,-0.81235 -0.01395,-0.0491 -1.13223,-0.20515 z m 3.692798,0.14935 0.077,1.51567 -0.819589,0.2191 -0.455786,-0.25011 0.04289,-1.33067 z m 34.698657,1.90427 0.548804,0.0698 -0.303341,0.98547 -0.226343,0.0444 z m -45.135746,0.0419 0.217041,0.49558 -0.06511,0.0119 0.0062,0.10491 -0.588078,0.30799 z m 44.823104,0 -0.0155,1.12655 -1.434021,0.2837 -0.0047,-1.12758 z m -40.07094,0.16795 1.453658,0.36483 c -0.02194,0.47906 -0.04236,0.86766 -0.06046,1.16996 l -0.641821,-0.39584 -0.321428,-0.85008 -0.117305,0.85576 -0.343648,0.0739 -0.02274,-1.16427 z m 38.259681,0.18448 -0.03927,1.1374 -0.935861,0.18552 -0.04031,-1.125 z m -1.360124,0.2651 -0.04961,1.1436 -0.475424,0.094 -0.108003,-0.0553 -1.242819,-0.003 -0.226859,-0.7705 z m -34.979777,0.0863 1.034045,0.47801 -0.02842,0.95601 -0.434599,-0.17311 -0.603063,-0.0388 z m 11.761039,0.0884 c 0,0 0.09612,1.29904 0.09612,1.48776 0,0.18872 -1.306897,0.0202 -1.306897,0.0202 l 0.01034,-1.46244 z m -1.532206,0.0289 -0.03566,1.54151 -3.068546,0.0915 -0.01189,-1.60455 z m -4.504635,0.0109 1.087789,0.002 0.03514,1.65364 -1.143599,-0.008 z m 26.780278,0.26148 -0.04651,1.33016 -1.170471,0.15606 -0.02119,-0.49403 -0.619084,0.0491 -0.07958,0.39895 h -0.222725 l -0.08785,-0.88574 -0.58136,-0.076 z m -3.075781,0.51367 -0.05013,0.77721 -1.369425,0.0207 -0.383956,-0.59789 z m -2.023133,0.22376 -0.157613,0.6289 -0.517798,0.0506 -0.05374,-0.59893 z m -1.16427,0.11782 -0.09302,1.18649 -0.536918,-0.0202 -0.0646,-1.13172 z m -0.996321,0.0496 -0.02791,1.10277 -1.193725,-0.0444 0.12299,-1.00407 z m -1.423169,0.0703 -0.118339,0.97617 -0.178801,-0.006 -0.07855,-0.58911 -0.864547,-0.11524 0.03049,-0.20567 z m -37.276278,1.59525 0.561723,0.009 -0.05581,0.97307 -1.212329,0.0325 z m 2.011247,0.0114 0.02532,0.94723 -1.265039,-5.2e-4 0.05013,-0.94464 z m -3.046326,1.00304 0.05839,0.0641 -0.03566,0.0171 z m -5.087545,0.49247 -0.03256,1.50534 -0.706417,-0.22118 0.22996,-0.4718 -0.0088,-0.80977 z m -1.145666,0.005 -0.0279,0.004 -0.135393,0.86196 0.129708,0.32659 -0.01757,0.25942 -0.506946,-0.21859 0.272335,-0.50901 -0.04548,-0.32092 -0.504879,0.006 -0.07596,-0.40669 z m -1.389063,0.006 -0.06718,0.4868 -1.420585,0.0946 V 133.797 Z m 2.888196,0.11576 0.762744,0.016 -0.02791,1.23145 -0.709001,-0.005 z m 1.25212,0.0274 1.456242,0.0315 -0.08888,1.125 H 36.24327 l -0.204122,-0.75913 -0.361735,0.786 z m 2.058789,0.045 0.73794,0.0155 -0.03256,0.92862 -0.204638,0.2248 -0.405143,-0.36122 z m -9.236129,0.50746 -0.05478,0.58911 -0.326078,-0.0103 -0.01137,-0.046 0.07131,0.001 -0.04703,-0.46148 z m 0.396359,0.1142 0.790649,0.004 -0.01757,0.51056 -0.826306,-0.0269 z m 1.167887,0.006 1.357023,0.016 -0.0047,0.0315 0.310059,0.14262 -0.15968,0.37931 -1.517737,-0.0491 z m -3.330029,0.0527 0.721919,0.0279 -0.01964,0.31471 0.03359,10e-4 -0.0026,0.0403 -0.804085,-0.0258 z" /></g></svg>
