<?xml version="1.0" encoding="UTF-8" standalone="no"?>
<!-- Created with Inkscape (http://www.inkscape.org/) -->

<svg
   width="93.364845mm"
   height="23.02599mm"
   viewBox="0 0 93.364845 23.02599"
   version="1.1"
   id="svg1"
   xml:space="preserve"
   xmlns:inkscape="http://www.inkscape.org/namespaces/inkscape"
   xmlns:sodipodi="http://sodipodi.sourceforge.net/DTD/sodipodi-0.dtd"
   xmlns="http://www.w3.org/2000/svg"
   xmlns:svg="http://www.w3.org/2000/svg"
   xmlns:rdf="http://www.w3.org/1999/02/22-rdf-syntax-ns#"
   xmlns:cc="http://creativecommons.org/ns#"
   xmlns:dc="http://purl.org/dc/elements/1.1/"><defs
     id="defs1" /><sodipodi:namedview
     id="base"
     pagecolor="#ffffff"
     bordercolor="#000000"
     borderopacity="0.3"
     inkscape:pageopacity="0.0"
     inkscape:pageshadow="2"
     inkscape:zoom="0.35"
     inkscape:cx="400"
     inkscape:cy="560"
     inkscape:document-units="mm"
     inkscape:showpageshadow="2"
     inkscape:pagecheckerboard="0"
     inkscape:deskcolor="#d1d1d1" /><metadata
     id="metadata1"><rdf:RDF><cc:Work
         rdf:about=""><dc:format>image/svg+xml</dc:format><dc:type
           rdf:resource="http://purl.org/dc/dcmitype/StillImage" /></cc:Work></rdf:RDF></metadata><g
     inkscape:groupmode="layer"
     id="layer11"
     inkscape:label="Layer 4"
     style="display:inline;fill:#f9f9f9"
     transform="translate(-26.758573,-99.878141)"><path
       id="path37"
       style="display:inline;fill:#000000;stroke-width:0.264583"
       d="m 75.747314,99.878141 0.01292,0.220659 0.250113,0.0512 0.05788,0.51366 h -0.327112 l 0.02481,0.63097 -2.145089,0.0734 2.158525,0.27595 0.0155,0.39946 -1.502751,4.52169 -0.612882,-0.0109 0.02429,3.77186 -2.443262,1.51361 -1.268657,-3.44941 -3.1781,-0.0145 0.04754,7.56027 -1.093473,0.094 -0.180351,-0.32505 -0.360701,0.003 -0.285254,-0.75344 -0.240296,0.009 a 0.64603883,0.60087013 0 0 0 0.124024,-0.3514 0.64603883,0.60087013 0 0 0 -0.645956,-0.601 0.64603883,0.60087013 0 0 0 -0.326595,0.0842 l -4.163053,-2.01538 c -5.27e-4,-0.0782 -0.0031,-0.41548 -0.0031,-0.41548 0,0 -0.173786,-0.27691 -0.21084,-0.0248 -0.01448,0.0985 -0.06958,0.89209 -0.128674,1.77043 l -0.676961,-0.30179 -0.258899,0.28267 0.909505,0.41135 c -0.0672,1.00977 -0.111543,1.69829 -0.136942,2.09444 l -0.216008,-0.0677 -2.133203,-0.0946 -0.134875,-2.21072 1.471744,-1.603 v -0.4098 l -1.461926,0.0315 -0.162781,-1.81746 h -0.785998 l 0.01654,1.48828 -0.459403,0.15244 -1.65778,0.18914 -0.561723,1.07435 h -1.147217 l 0.729155,0.42116 0.164331,2.05207 H 51.44028 l -0.412895,1.04284 0.879016,0.24184 -0.259415,2.019 -1.963705,-0.0755 -0.362768,-1.13895 h -1.487765 l -0.671277,-0.6997 -0.840775,0.0884 0.02015,-0.48834 2.714563,0.11627 -0.284221,-2.07274 -2.262394,-0.0103 -3.472139,0.89659 -6.461105,-0.19275 -0.106453,0.41548 5.903515,0.36121 -0.149861,0.67335 2.602425,-0.13384 -0.02429,0.52451 -1.773018,-0.1602 -0.217041,0.78135 -0.504879,0.0754 -0.411345,0.9927 -0.551387,-1.02267 -5.01003,-0.10181 -0.453203,-1.00355 -3.934643,0.46457 c -1.226236,-0.0393 -5.066358,-0.30851 -5.066358,-0.30851 l -0.07441,0.46147 c 0.129797,0.0276 4.226295,0.34003 4.856552,0.38809 l -0.02532,0.53175 1.122929,0.17312 0.105937,0.48937 -6.106088,-0.0305 1.07642,1.81695 0.508497,2.53783 90.214131,0.14883 0.25787,-3.54707 1.30793,-2.63344 -0.0884,-0.48937 -1.08159,-0.009 -0.0372,-1.61799 h -0.35709 l -0.002,1.61438 -2.13061,-0.0186 -0.18191,-0.53278 -0.19327,0.52917 -1.02732,-0.009 -0.15762,-0.53123 -0.22324,0.52813 -1.63711,-0.015 -0.23926,-0.54622 -0.20619,0.54261 -2.34818,-0.0207 -0.0853,-0.30748 -0.19482,0.30489 -3.3166,-0.0284 -0.0351,-0.45837 1.62575,-0.0904 0.12712,-0.5762 3.63389,-0.64027 -0.0966,-0.34881 -4.16874,0.69143 -2.01176,-0.36794 -2.83755,0.22479 -0.21859,0.97307 h 0.72605 l -0.0315,0.6351 -3.712956,0.0465 -0.463021,-0.42529 -1.44694,-0.0951 0.05374,-0.34571 2.807057,-0.016 -0.3638,-0.77153 5.38468,-1.10536 -0.16071,-0.31574 -6.191349,0.88521 -1.214912,-0.5271 -5.258594,-0.12867 -0.249597,1.94768 c 0,0 2.23194,-0.0718 2.845821,-0.16794 0.613878,-0.0961 0.05943,0.64337 0.05943,0.64337 l -1.753898,-0.25942 -0.111105,0.55294 -2.117183,0.14211 -0.29869,-0.3669 0.03514,-0.0496 0.07545,-1.11725 -0.157614,-0.0749 -0.221175,1.02165 -0.394808,0.0625 -0.103869,-1.96318 -0.291972,-0.004 0.03152,2.0252 -0.206189,0.0326 -0.09715,-2.06964 1.954403,-0.17622 -0.113689,-0.84801 -0.655774,-0.70745 6.579961,-1.16375 -0.03204,-0.12661 0.177767,-0.0331 -0.04393,-0.38034 -7.39283,1.10277 -0.947229,-0.35812 -6.741191,-0.091 0.02274,1.27279 0.297139,0.24392 -0.02636,3.62923 -0.519865,-0.0868 -0.09353,-3.21221 -0.402043,-0.31833 0.0863,-2.61069 -2.290299,-0.093 0.03721,-3.09748 -2.855123,-0.0512 -0.14056,-2.08411 0.381889,-0.0672 0.149861,0.28422 0.227377,0.1235 0.08165,-1.63556 h -0.418062 l -0.03204,0.46613 -0.442867,-0.0543 0.02584,-1.21853 0.550354,0.0377 -0.02481,-1.83606 -0.815454,0.0119 -0.09715,-0.47697 0.409278,-0.250116 z m 0.3514,2.663919 0.238745,0.41651 0.08113,1.22577 -1.242818,-0.15917 z m -0.711068,1.56683 0.695048,0.21187 -0.242362,0.42375 -0.329179,-0.22789 z m 0.966867,0.33176 -0.07648,0.75551 -0.326078,-0.37362 z m -1.254704,0.22531 1.050582,0.61599 -0.673861,0.87333 -0.735872,-0.52969 z m 1.188041,1.20458 0.145727,0.39067 -0.33848,0.339 -0.476974,-0.45372 z m -1.523938,0.0501 0.103353,0.0429 0.279053,0.29817 -0.421163,0.57826 -0.299207,-0.56327 z m 0.575675,0.37517 0.660425,0.48059 -0.866614,0.24494 -0.154512,-0.12402 0.254248,-0.5364 z m 3.245797,1.55236 h 0.673861 v 0.67593 h -0.673861 z m -1.753898,0.0641 h 0.644405 v 0.53175 h -0.644405 z m 0.902271,0.006 h 0.646988 v 0.56947 h -0.646988 z m -1.632976,0.0263 h 0.552421 v 0.51728 h -0.552421 z m -9.22786,0.90124 2.567285,0.0264 0.04702,1.12913 -2.439127,-0.0207 z m 9.726021,2.01641 h 1.002523 v 0.68988 h -1.002523 z m 2.508374,0.0114 h 0.860929 v 0.6842 h -0.860929 z m 2.182296,0.0284 h 0.417029 v 0.63149 h -0.417029 z m -3.456637,0.0109 h 1.068152 v 0.65939 h -1.068152 z m 2.363164,0.0165 h 0.86868 v 0.66508 h -0.86868 z M 53.776562,111.757 h 0.698666 v 0.71469 h -0.698666 z m 2.581238,0.0248 h 1.085722 v 0.51056 H 56.3578 Z m -1.602486,0.003 h 1.28571 v 0.709 h -1.28571 z m 4.935099,0.40256 3.976502,2.06085 a 0.64603883,0.60087013 0 0 0 -0.133842,0.36381 0.64603883,0.60087013 0 0 0 0.154512,0.38964 l -0.643371,0.0238 -0.227893,0.70125 -2.139921,0.0171 -0.360185,0.19224 v 0.31522 l -0.576192,-0.18035 c -0.004,-0.0908 -0.0077,-0.24433 -0.01137,-0.41909 h 0.05219 l -0.04496,-0.0636 0.0067,-0.0377 -0.0155,0.0114 c -0.0082,-0.41946 -0.01514,-0.99314 -0.02119,-1.58492 l 0.504362,0.22841 0.10232,-0.36432 -0.611333,-0.27285 c -0.0067,-0.72015 -0.0087,-1.0632 -0.01085,-1.38079 z m 29.969747,0.30696 h 0.993221 v 0.78599 H 89.66016 Z m -5.584672,0.0362 h 1.305347 v 1.06763 h -1.305347 z m 1.601453,0.01 h 1.590084 v 1.1777 h -1.590084 z m 2.109432,0.016 h 0.699699 v 1.079 h -0.699699 z m 0.950329,0.0605 h 0.679546 v 0.99787 h -0.679546 z m -18.66656,1.22421 h 0.411861 c 0,0 0.154562,2.2912 0.0031,2.26757 -0.151387,-0.0236 -2.891721,0.0382 -2.893363,0.0382 z m 3.185335,0.0207 1.261938,0.0103 0.01344,2.23759 -1.25522,0.0119 z m -1.372526,0.0357 0.08527,2.23191 -1.203544,0.01 -0.01809,-2.23035 z m 2.979663,0.0362 2.242757,2.06448 -2.25826,0.0734 z m -23.200651,1.23042 h 3.963582 v 0.90899 h -3.963582 z m 40.000659,1.85415 h 0.481108 v 1.12965 h -0.481108 z m -0.671794,0.008 h 0.491443 v 1.24747 h -0.491443 z m -1.719791,0.0222 h 0.77773 v 1.11621 h -0.77773 z m 3.175,0.0367 h 1.128096 v 1.04335 h -1.128096 z m 1.589567,0.0775 H 94.8092 v 0.95033 h -0.773596 z m -3.816821,0.0233 h 0.58446 v 0.93121 h -0.58446 z m -9.071281,0.0362 h 1.052132 v 0.99116 h -1.052132 z m -1.395264,0.008 h 1.097091 v 0.95757 h -1.097091 z m 2.64635,0.006 h 1.79679 v 0.94568 h -1.79679 z m 15.939596,0.006 h 2.066536 v 0.9989 h -2.066536 z m -19.374528,0.0155 h 0.551387 v 0.91519 h -0.551387 z m 21.790914,0.0119 h 0.94723 v 0.77359 h -0.94723 z m 1.12655,0.008 h 0.73742 v 0.52193 h -0.73742 z m -54.269556,0.52761 h 0.540019 v 0.90072 h -0.540019 z m -5.387785,0.0765 h 0.758094 v 0.82166 h -0.758094 z m -7.344771,0.002 h 1.106909 v 0.83561 h -1.106909 z m 9.693982,0.003 h 2.859774 v 0.75034 H 44.57299 Z m -1.265556,0.004 h 1.028878 v 0.7767 h -1.028878 z m -3.314526,0.015 h 1.071252 v 0.7953 h -1.071252 z m -3.784265,5.2e-4 h 1.856217 v 0.73484 h -1.856217 z m 2.061372,0.0134 h 1.529106 v 0.87901 h -1.529106 z" /></g></svg>
