<?xml version="1.0" encoding="UTF-8" standalone="no"?>
<!-- Created with Inkscape (http://www.inkscape.org/) -->

<svg
   width="104.15335mm"
   height="34.0802mm"
   viewBox="0 0 104.15335 34.0802"
   version="1.1"
   id="svg1"
   xml:space="preserve"
   xmlns:inkscape="http://www.inkscape.org/namespaces/inkscape"
   xmlns:sodipodi="http://sodipodi.sourceforge.net/DTD/sodipodi-0.dtd"
   xmlns="http://www.w3.org/2000/svg"
   xmlns:svg="http://www.w3.org/2000/svg"><sodipodi:namedview
     id="namedview1"
     pagecolor="#ffffff"
     bordercolor="#000000"
     borderopacity="0.25"
     inkscape:showpageshadow="2"
     inkscape:pageopacity="0.0"
     inkscape:pagecheckerboard="0"
     inkscape:deskcolor="#d1d1d1"
     inkscape:document-units="mm" /><defs
     id="defs1" /><g
     inkscape:groupmode="layer"
     id="layer3"
     inkscape:label="Layer 3"
     transform="translate(-23.929356,-64.084139)"><path
       id="path71"
       style="display:inline;fill:#ffffff;stroke-width:0.333872"
       d="m 66.996755,64.084139 -0.401294,0.02043 -0.153174,10.674062 -1.240077,0.03925 1.925687,1.361204 -0.0703,1.42518 -0.508304,0.0129 -2.489072,-3.890616 -0.146879,0.233857 3.02413,4.964204 -0.135338,0.781671 c 0,0 -0.979082,9.009875 -1.122049,9.966042 l -0.693478,-0.0064 0.04407,-2.55683 0.344641,-0.578458 -0.1815,-0.364493 -0.0661,-0.973057 -0.404965,-0.25321 v -0.917147 l -0.182025,-0.405351 -0.07606,-0.839195 -0.515124,-0.106982 -0.06715,1.009077 -0.967826,-0.199988 -0.06032,-0.242995 0.284315,-0.528462 -0.04353,-0.63867 -0.254415,0.118273 h -0.20091 l 10e-4,-0.324173 0.298479,-0.342452 -0.0362,-0.344064 -0.466341,-0.03602 -0.519846,0.780596 0.03305,1.051547 0.316314,0.121498 -0.0173,0.520397 -1.542753,0.08871 -0.193566,5.080326 H 59.9628 l -0.241827,-0.358579 -0.103863,0.142464 -0.06348,-0.833819 -0.175729,-1.736988 -0.185172,1.166056 -0.171535,0.06451 -0.0074,-0.152679 -0.34569,-0.288154 -0.157896,0.498894 -0.301625,-0.467176 -0.270153,-0.05322 -0.05403,0.518785 -0.272775,-0.104833 -0.05455,-1.296154 -0.442736,-0.08279 -0.04721,0.51287 h -0.314741 l -0.352509,-0.474701 -0.291134,0.379009 0.334674,0.442445 0.04879,0.41234 -0.507257,-0.08279 -0.287988,0.64297 0.796294,0.209664 0.269627,0.447821 0.03882,1.405288 -0.30215,-0.03656 0.01993,-1.499367 -0.314216,-0.07634 -0.03199,1.638607 -0.901732,-0.06612 0.0068,-0.754254 -0.07502,-0.315033 -0.24812,0.355891 0.04878,0.885966 -0.211821,-0.151603 -0.23081,-0.846721 -1.219096,-0.209664 v -0.165044 l 0.2434,-0.596737 -2.330127,-0.191386 0.09914,0.512872 1.072739,0.08547 -0.07134,0.570395 -0.706592,-0.07579 -0.108061,3.126148 -0.222942,0.14354 0.06348,2.220291 -1.383808,0.01505 0.0057,-3.283127 0.863963,-0.04677 0.03305,-1.350991 -0.386606,-1.28379 -0.796818,-0.08494 -0.276972,0.69727 -2.011715,-0.08279 -0.06032,-0.534914 h -0.54555 l -0.06137,0.518248 -0.924812,0.0301 -0.472635,0.690279 -4.552196,0.139777 -0.04878,0.45266 4.076937,0.279014 0.112782,0.168806 0.474208,0.220955 -0.01364,3.423441 -1.700647,0.02634 -0.223466,-0.584372 -0.3032,0.753179 -0.26648,-0.684366 -0.275397,0.7349 h -0.383459 l 0.01993,-1.103156 1.028677,-0.0414 -0.0041,-1.118209 -0.56391,-1.63377 -0.705543,0.07473 -0.440112,0.662324 -1.53331,0.04407 -0.356182,-0.377396 -1.38171,0.05107 -0.541878,0.856936 -4.647142,0.111283 v 0.487067 l 4.080609,0.167192 0.670922,0.990799 -0.101246,0.704794 -5.140759,-0.623615 -0.0876,-0.821454 -0.160517,-0.07902 -0.146879,1.105844 -0.811506,-0.0844 -0.353034,-0.696192 -0.208778,0.728986 h -0.531422 l -0.264907,-0.519329 -0.16891,0.424166 c 0,0 -0.469675,0.214897 -0.688757,0.05807 l -0.424899,-1.054292 h -0.276972 l -0.04616,0.389761 h -0.311068 l -0.125897,0.402125 -0.08603,-0.0069 -0.165239,-0.594047 H 26.8107 l -0.04774,0.529536 -1.359679,-0.198375 -0.889666,-2.610052 -0.04039,-4.309945 -0.196187,-0.05752 c 0,0 0.04144,6.56443 0.04144,6.944187 l 0.0085,0.01128 -0.120126,2.914333 -0.277496,0.616092 0.516174,1.354215 4.252667,-0.01074 v -0.0069 l 41.347445,-0.103314 v -0.0092 l 6.321561,-0.01505 v -0.01128 l 42.867647,-0.106446 v -0.01183 l 7.39483,-0.01828 0.0918,-2.598761 0.3929,-1.902031 0.80678,-2.372432 0.16155,-4.278227 -0.10804,-0.225792 -0.2198,3.812126 -3.42176,0.258587 -0.18884,-0.721461 -1.25319,-0.122572 -0.24394,0.718234 -2.05262,-0.120961 -0.25179,0.626306 -1.40427,0.06989 -0.30583,-0.402663 -0.72494,-0.165582 -0.044,0.599426 -0.32732,0.05377 0.0116,0.544051 -0.87707,-0.191386 -0.086,-0.859086 -0.82357,-0.184397 0.0975,1.02628 -0.72232,-0.19246 -0.28169,-0.482228 -0.15528,0.748877 -0.33572,-0.07688 -0.30005,-0.354816 -0.82724,-0.08279 -0.16367,0.575232 -0.24708,-0.258585 0.12853,-0.821992 -1.65396,0.0092 -0.31422,0.527924 -1.22854,0.147303 -0.0934,-0.517709 0.63368,-0.228481 0.16314,-0.470401 3.758,-0.09891 -0.1621,-0.711245 -3.97463,-0.04516 -1.08533,-0.756403 -4.00298,-0.308584 -0.81676,0.77522 -0.22871,1.477326 1.13569,0.287617 -0.0483,1.043484 -1.92831,-0.03279 0.0409,-2.442857 -0.30006,-0.62738 0.73072,-0.493517 4.15825,-0.399975 -0.0414,-0.706945 -4.82182,-0.34729 -0.55447,-0.821992 -1.26264,-0.05538 -0.0646,0.709095 -2.174856,-0.149991 0.227663,-0.194612 0.08289,-0.76608 -0.575976,-1.049934 0.47893,-0.328475 -0.376114,-0.91607 -1.248996,1.86171 -0.188318,0.584372 0.621087,0.369332 0.117504,0.569857 H 97.24065 l 0.04511,1.873 1.017137,-0.192999 0.08865,0.88758 -0.268579,0.208589 0.142157,2.206851 -0.595384,0.07795 -0.147928,0.612326 -0.422276,-0.03656 -0.229236,-0.643507 -0.285365,-0.16612 -0.01364,-1.481626 -0.30215,-0.06344 0.04615,-5.658248 -1.105264,-0.249984 v -0.830693 l -0.538705,-0.540827 -0.188844,1.021979 -0.495192,-0.440833 v -0.160204 l -0.04564,0.126873 -0.20668,-0.150528 -0.01311,-0.58706 0.508829,-0.06235 -0.0278,0.07688 h 0.536633 l -0.341494,-1.486466 -1.372792,0.131712 -0.0041,2.517584 -0.383983,0.494055 -0.101246,1.004776 -2.354783,-0.11881 -0.22976,-0.142464 0.34569,-1.13165 0.777934,0.08279 0.101236,-0.716621 -0.528239,-0.479541 -0.08813,-5.114733 -1.301452,-0.08225 0.104389,1.347226 0.870782,-0.07473 0.0362,0.585985 -1.004546,0.140852 10e-4,-0.301595 -0.270152,-0.05645 -0.643644,-1.352066 -0.05403,-4.894855 2.393076,-0.828443 -0.120126,-1.947727 -2.21315,0.194612 -0.08865,-0.490292 0.678266,-0.887578 -1.690156,-1.571407 -0.07239,2.892291 0.315265,0.444058 -0.578598,-0.03172 -0.03882,1.239707 -0.990908,-0.08279 -0.08341,0.506958 1.630354,0.582221 -0.144255,1.327874 -1.404267,0.234394 1.385906,0.452122 -0.572303,5.682439 -0.526665,-0.419865 -0.280119,1.125198 0.46634,0.860161 -0.05141,1.583234 -0.354606,0.04946 -0.163666,-1.605813 -0.185172,-0.113971 -0.155272,2.263298 0.326281,0.22203 0.14583,2.325122 -0.24812,0.27794 -0.89701,0.06128 0.01206,-8.76128 -3.580696,-0.247833 -0.150551,9.014489 -0.420702,0.167732 -0.104391,1.8773 -0.710787,0.07688 -0.101246,-1.027355 -0.570205,0.272564 0.01259,-2.305769 -0.232384,-0.05054 0.0031,-2.340714 -0.367197,-0.06182 -0.04669,-2.228356 -0.653086,0.0075 -0.07449,2.004175 -0.655709,-0.0087 -0.09914,2.537474 h -0.716035 l -0.04144,1.164982 -0.246022,-0.03118 -0.01,-1.393998 -0.300578,0.07579 -0.111732,-0.608564 -0.694003,-0.158591 -1.250043,-1.199926 0.772163,1.39131 -0.03671,3.232056 -0.493093,0.323098 0.0085,1.073051 -0.479979,0.110746 0.04826,1.381632 -0.850323,0.08279 0.04301,-1.850959 0.755376,-0.0543 0.02885,-0.883816 -1.408463,-0.01828 0.04983,-0.825217 H 71.46663 v 0.824141 l -1.19234,-0.329549 -0.119602,-0.795648 -0.465291,-0.124724 0.01993,1.206914 -0.434343,-0.660712 -1.01766,-0.07205 -0.483127,0.928436 -0.02517,-0.08494 -0.0047,-0.296755 7.91572,-9.358016 -0.23553,-0.52201 -7.691206,9.165555 -0.102291,-6.629155 0.154748,-0.130099 v -0.341376 l -0.238154,-0.05967 -10e-4,-0.440833 0.288512,-0.07043 -0.06977,-0.374707 -0.164714,-0.02581 0.008,-0.905319 0.212449,-0.01935 0.01207,-0.369331 -0.248121,-0.274715 0.0918,-1.984821 0.832488,-0.702644 0.02517,-0.379008 -1.38381,-0.09086 0.0341,-4.954528 c -0.116965,-0.119724 -0.222056,-0.220798 -0.222056,-0.220798 l 0.05246,-5.388908 z m 20.930235,14.227602 0.607974,0.892418 -1.236406,-0.218266 z m -6.333625,0.377396 1.076412,0.02419 -0.04353,1.635381 -0.986711,-0.02473 z m 1.4541,0.11881 1.461969,5.38e-4 -0.01207,1.605276 -1.464592,-0.04893 z m 4.296731,0.722535 0.943171,0.156442 -0.04931,1.164981 -1.008218,-0.251597 z m -20.275576,1.120897 0.201434,0.309121 0.01836,-0.0016 0.100715,6.787745 -0.483651,-0.0414 -0.28589,1.270351 0.271201,0.710171 -0.748033,-0.0081 c 0.248792,-1.815329 0.925862,-9.026316 0.925862,-9.026316 z m 20.065224,0.523624 0.855044,0.04838 0.02885,1.45636 -1.283616,0.180096 -0.03042,-0.755329 c 0,0 0.348553,-0.900204 0.430144,-0.929512 z m 6.079211,1.087566 0.332051,0.05751 0.064,0.496743 -0.479454,0.483302 z m -4.752055,1.368194 0.02098,1.647208 c 0,0 -1.188147,-0.12645 -1.188147,-0.256435 0,-0.12999 0.100715,-1.376258 0.100715,-1.376258 z m 5.298655,0.467712 1.12677,0.208051 -0.267005,1.007464 -1.038643,-0.206976 z m 1.481377,0.294067 0.902781,0.126875 -0.04721,1.139712 -1.151426,-0.274176 z m -33.644698,0.159667 0.06085,1.23487 -0.697674,-0.04409 0.03252,-1.131112 z m 0.833013,0.09407 0.06819,1.936438 -0.675119,-0.117197 0.170485,-1.771933 z m 22.95559,2.832081 c 0.246348,0.0033 0.462668,0.03549 0.462668,0.03549 l 0.15265,1.147777 0.202483,-0.921985 h 0.186221 l 0.06924,1.843432 -0.655185,0.200525 -0.05769,-0.654259 -0.265431,0.654259 -0.299003,0.05913 0.03567,-1.291855 -0.577559,-0.303744 0.104914,-0.630606 c 0.118607,-0.115539 0.394615,-0.141454 0.641021,-0.138163 z m -26.345343,0.141389 0.158942,0.04516 v 0.685441 l -0.18727,0.05913 -0.03252,0.440294 h -0.439064 l -0.142157,0.866613 -0.233432,-0.0543 -0.132716,-1.57732 1.010841,-0.415027 z m -7.091103,1.819241 1.111034,0.106444 -0.122749,1.3354 -0.997726,-0.109671 z m 1.384334,0.0801 1.117853,0.158593 -0.06557,1.159067 -1.134639,-0.03924 z m 26.411964,0.335464 1.694353,0.326861 -0.04669,1.2053 -1.734744,-0.110208 z m -0.274873,0.122573 -0.03828,1.282715 -2.427173,-0.04516 -0.01836,-1.223579 z m 11.556742,0.05054 0.594859,0.119883 0.03671,0.984886 -0.720756,-0.05538 z m 0.951041,0.0027 0.628431,0.06612 0.01206,0.993487 h -0.762196 z m 0.904354,0 2.015912,0.139776 0.05141,0.961767 -2.122924,0.03979 z m -11.159121,0.04246 1.070118,0.07151 -0.03567,1.234331 -1.083232,0.02419 z m 1.467215,10e-4 0.966254,0.06451 10e-4,1.415503 -1.018185,-0.159668 z m 12.190945,0.03172 c 0.301731,-0.0069 0.771638,0.05161 0.771638,0.05161 l 0.02623,1.03488 -1.010316,-0.05053 c 0,0 -0.05906,-0.83998 -0.03463,-0.974132 0.0077,-0.04192 0.109921,-0.05867 0.247071,-0.06182 z m -70.864323,1.023592 0.614793,2.132661 -0.595385,-0.0871 z" /></g></svg>
