<?xml version="1.0" encoding="UTF-8" standalone="no"?>
<!-- Created with Inkscape (http://www.inkscape.org/) -->

<svg
   width="136.86253mm"
   height="21.017267mm"
   viewBox="0 0 136.86253 21.017267"
   version="1.1"
   id="svg1"
   xml:space="preserve"
   xmlns="http://www.w3.org/2000/svg"
   xmlns:svg="http://www.w3.org/2000/svg"><defs
     id="defs1" /><g
     id="layer4"
     transform="translate(-22.533309,-21.525422)"><path
       id="path3"
       style="display:inline;fill:#000000;stroke-width:0.240873"
       d="m 159.39578,31.778153 c -0.12369,-0.437816 -0.24753,-0.877496 -0.37119,-1.321512 -0.16492,-0.592127 -0.68808,-0.823056 -1.03219,-1.234479 -0.34411,-0.411423 -0.89192,-0.262493 -1.33798,-0.393771 -0.44604,-0.131278 -0.41823,0.286035 -0.41823,0.286035 l -3.50584,-0.279453 -4.92851,-0.410231 -4.08216,-0.492101 -6.67248,-1.14933 -10.81722,-2.074242 -2.63643,-0.452581 -12.84159,-1.425479 -10.41685,-0.731087 -12.723978,-0.364612 -15.384409,0.436114 -2.092585,0.06819 -0.318036,-0.405998 -2.068122,0.01884 -0.253107,0.341077 -4.028056,0.03195 -0.356608,-0.374016 h -2.082234 l -0.515152,0.288868 -0.06398,0.161831 -0.535381,0.0315 0.09785,-0.365074 h -6.08583 v -0.44317 h -3.004805 l -2.324524,0.729678 -2.248316,-0.235226 -2.138697,-0.267692 -1.890296,0.09031 h -1.891707 l -1.544039,0.430932 -0.877871,0.452584 -0.995957,0.354249 -0.422939,0.589487 -0.154311,1.162968 -1.707754,0.02731 -0.961617,0.11103 -1.656945,0.771547 -0.539151,-0.314731 -0.729204,0.064 -1.401963,1.489461 -2.534816,0.577724 c 0,0 -1.669053,0.888213 -2.517418,1.380323 -0.848364,0.492103 -0.964557,1.314001 -1.490408,1.934514 -0.525858,0.620513 -0.243966,0.74601 -0.330734,1.143677 -9.11e-4,0.0054 0.29878,0.01047 0.354723,0.01603 -0.06536,0.0063 -0.384786,0.01066 -0.38342,0.01693 0.08676,0.397712 -0.195124,0.522699 0.330736,1.143211 0.52585,0.620458 0.642043,1.442403 1.490408,1.934515 0.848363,0.492111 2.517408,1.380323 2.517408,1.380323 l 2.534825,0.578188 1.401964,1.48947 0.729203,0.064 0.539142,-0.314741 1.656954,0.771546 0.961609,0.110558 1.707762,0.02777 0.154311,1.162968 0.422941,0.589013 0.995956,0.354724 0.877871,0.452582 1.543565,0.430942 h 1.892181 l 1.890296,0.08986 2.138696,-0.267689 2.248315,-0.234763 2.324526,0.729686 h 3.00434 v -0.443178 h 6.086299 l -0.09785,-0.365066 0.535381,0.03105 0.06398,0.162313 0.515143,0.288384 h 2.082244 l 0.356609,-0.374016 4.028054,0.03195 0.253098,0.34156 2.068131,0.01884 0.318027,-0.406479 2.092593,0.06864 15.38441,0.436112 12.723979,-0.365076 10.41685,-0.730614 12.84158,-1.425489 2.63644,-0.453045 10.81721,-2.07425 6.67249,-1.149321 4.08215,-0.491629 4.92852,-0.410713 3.50582,-0.279452 c 0,0 -0.0277,0.417787 0.41826,0.286508 0.44604,-0.131278 0.99386,0.01766 1.33797,-0.39377 0.34412,-0.411424 0.86727,-0.642354 1.03217,-1.23448 0.13029,-0.467749 0.26068,-0.931584 0.39096,-1.39255 h 0.009 z m -30.77164,-1.582611 v 0.661925 l -5.18114,-0.02022 -1.08205,0.05463 0.0574,0.670402 6.16017,-0.0063 v 0.743788 l -0.008,4.74e-4 v 0.0018 h -0.0353 l -6.01619,0.319911 -0.13597,-0.0073 -0.0301,0.351428 1.08205,0.05509 5.18068,-0.02067 v 0.6624 l -5.19244,0.193831 -1.24435,0.0315 -0.54102,0.674635 -1.03125,0.744261 -1.30035,0.331674 -1.66213,0.0036 -0.89714,-0.512323 -0.63559,-0.0701 -0.59372,-0.517502 0.21217,1.974508 -2.49813,-0.379187 0.47847,-1.79527 -0.46106,-0.488797 -2.38333,0.08894 -1.24437,0.0315 -0.54102,0.674635 -1.03122,0.744261 -1.30036,0.331673 -1.66212,0.0036 -0.89716,-0.512321 -0.6356,-0.0701 -0.5937,-0.517501 0.21217,1.974508 -2.49812,-0.379196 0.47846,-1.79526 -0.93293,-0.989367 -0.0221,-1.627785 0.0137,-4.65e-4 0.0164,-1.219429 0.93293,-0.989366 -0.47847,-1.79527 2.49812,-0.379187 -0.2117,1.974508 0.59372,-0.517502 0.63512,-0.0701 0.89762,-0.512322 1.66166,0.0036 1.30033,0.331672 1.03125,0.743798 0.54102,0.674634 1.24437,0.03195 2.22666,0.0833 0.61773,-0.655345 -0.47846,-1.795259 2.49812,-0.379187 -0.21172,1.974508 0.59373,-0.517502 0.63512,-0.0701 0.89763,-0.512331 1.66165,0.0036 1.30035,0.331674 1.03123,0.743789 0.54103,0.674634 1.24436,0.03195 z m -15.845,0.734847 -1.89357,-0.0073 -1.08206,0.05316 0.0575,0.670394 2.90882,-0.0028 z m -0.006,2.168339 -0.007,-0.540089 -2.80532,0.14914 -0.13597,-0.0073 -0.0301,0.350955 1.08204,0.05508 z m -17.925333,-1.02042 -0.131262,2.28171 -1.584491,1.616023 -0.977141,-0.187713 -0.09927,0.619592 -1.099923,0.800715 -1.231184,-0.61159 -0.04843,0.276631 0.270987,1.190725 -0.817184,1.414664 -1.115929,0.470926 -1.046765,-0.205594 -0.670403,-0.58101 -0.291215,-0.715092 -1.473003,0.05881 -1.045819,0.865644 -1.038772,0.630882 -0.889633,-0.113381 -0.400827,0.490218 -1.286699,-0.0063 v -0.477983 l -1.018544,-0.274272 -1.356798,1.035003 -1.762323,-0.318026 -0.930563,-0.927276 -0.07904,-1.144615 0.36554,-0.742861 -1.287163,0.989377 -1.413726,-0.0028 -0.697686,-1.106514 -0.09126,-0.380133 -0.893402,-0.514207 -0.01177,-0.779548 -1.345975,-0.565024 -0.658166,-0.821882 -0.76826,-0.63465 -0.0687,1.479592 -1.746799,-0.04707 -1.244832,-0.654406 -0.730622,-0.970547 -0.123259,-0.994547 v -0.311444 h -0.01129 v -0.492102 l 0.122784,-0.994545 0.731098,-0.970548 1.244357,-0.653933 1.747274,-0.04753 0.06822,1.479593 0.768259,-0.634177 0.658165,-0.822364 1.346449,-0.564542 0.01177,-0.779547 0.893393,-0.51468 0.09127,-0.380133 0.698161,-1.106516 1.413251,-0.0028 1.287638,0.988901 -0.36555,-0.742385 0.07856,-1.144615 0.930563,-0.927741 1.762332,-0.317563 1.357272,1.035003 1.018062,-0.274272 v -0.477427 l 1.286708,-0.0063 0.400352,0.490218 0.889632,-0.11338 1.039247,0.630881 1.04582,0.865645 1.473003,0.05926 0.291688,-0.715093 0.669929,-0.581484 1.046293,-0.205593 1.116392,0.470927 0.817183,1.414662 -0.270977,1.190727 0.04797,0.27663 1.231184,-0.61159 1.099923,0.800714 0.09974,0.619592 0.976667,-0.187239 1.584495,1.615541 0.126555,2.197981 z m -32.223,-0.274282 -0.02164,1.627786 -0.932913,0.989366 0.478456,1.79527 -2.498127,0.379186 0.212175,-1.974507 -0.593719,0.517501 -0.635588,0.0701 -0.897162,0.512323 -1.662125,-0.0036 -1.300337,-0.331674 -1.031243,-0.744261 -0.541027,-0.674635 -1.244357,-0.0315 -5.192434,-0.193831 v -0.6624 l 5.180673,0.02067 1.082052,-0.05509 -0.0301,-0.350955 -0.135966,0.0073 -6.0162,-0.319912 h -0.03529 v -0.0018 l -0.008,-4.73e-4 v -0.743789 l 6.160159,0.0063 0.05739,-0.670402 -1.082044,-0.05454 -5.181145,0.02022 4.74e-4,-0.662399 5.192898,-0.193832 1.244356,-0.03195 0.541026,-0.674635 1.031244,-0.743796 1.300346,-0.331664 1.661653,-0.0036 0.897625,0.51233 0.635124,0.0701 0.593711,0.517501 -0.211703,-1.974508 2.498128,0.379197 -0.478455,1.795259 0.932911,0.989366 0.016,1.219432 z m -17.837843,2.762058 -0.778128,1.048642 -0.623361,-0.814826 -0.03341,0.409293 -0.206994,0.256875 -0.145845,0.517501 -0.608304,0.602187 -0.592772,0.348133 -0.640761,0.09644 -0.375425,-0.04797 -0.113381,-0.07056 -2.792164,2.829801 -0.285561,-0.300619 2.552222,-2.9126 -0.07291,-0.06446 -0.0048,0.0046 -0.310507,-0.326029 -2.905071,2.515533 -0.285562,-0.300619 2.807686,-2.738524 -0.0588,-0.09127 0.01929,-0.01976 -0.04187,-0.448811 0.112434,-0.652532 0.357081,-0.596532 0.605947,-0.605009 0.509508,-0.134083 0.256866,-0.204646 0.400827,-0.02213 -0.778602,-0.660987 1.04723,-0.765438 0.46246,0.844469 0.692042,0.03105 0.585726,0.599828 -0.0048,0.0054 0.427174,0.461522 0.01039,0.70851 z m -6.337049,-3.527959 -0.812012,0.497273 -0.01039,0.70851 -0.427182,0.461513 0.0048,0.0054 -0.585717,0.599829 -0.692042,0.03105 -0.462459,0.844469 -1.04724,-0.765438 0.77861,-0.660988 -0.400835,-0.02213 -0.256865,-0.204648 -0.50951,-0.134082 -0.605945,-0.605009 -0.357075,-0.596541 -0.112441,-0.652523 0.04187,-0.448811 -0.01881,-0.01976 0.05834,-0.09127 -2.807686,-2.738524 0.285571,-0.300619 2.905071,2.515523 0.310971,-0.326019 0.0042,0.0046 0.07292,-0.06446 -2.552233,-2.912601 0.285573,-0.300619 2.792155,2.82979 0.113379,-0.07055 0.375427,-0.04797 0.640768,0.09645 0.592773,0.348132 0.608295,0.602186 0.145844,0.517501 0.207005,0.256868 0.03341,0.409302 0.623352,-0.814836 z" /></g></svg>
