<?xml version="1.0" encoding="UTF-8" standalone="no"?>
<!-- Created with Inkscape (http://www.inkscape.org/) -->

<svg
   width="71.372391mm"
   height="20.886665mm"
   viewBox="0 0 71.372391 20.886665"
   version="1.1"
   id="svg1"
   xml:space="preserve"
   xmlns:inkscape="http://www.inkscape.org/namespaces/inkscape"
   xmlns:sodipodi="http://sodipodi.sourceforge.net/DTD/sodipodi-0.dtd"
   xmlns="http://www.w3.org/2000/svg"
   xmlns:svg="http://www.w3.org/2000/svg"
   xmlns:rdf="http://www.w3.org/1999/02/22-rdf-syntax-ns#"
   xmlns:cc="http://creativecommons.org/ns#"
   xmlns:dc="http://purl.org/dc/elements/1.1/"><defs
     id="defs1" /><sodipodi:namedview
     id="base"
     pagecolor="#ffffff"
     bordercolor="#000000"
     borderopacity="0.3"
     inkscape:pageopacity="0.0"
     inkscape:pageshadow="2"
     inkscape:zoom="0.35"
     inkscape:cx="400"
     inkscape:cy="560"
     inkscape:document-units="mm"
     inkscape:showpageshadow="2"
     inkscape:pagecheckerboard="0"
     inkscape:deskcolor="#d1d1d1" /><metadata
     id="metadata1"><rdf:RDF><cc:Work
         rdf:about=""><dc:format>image/svg+xml</dc:format><dc:type
           rdf:resource="http://purl.org/dc/dcmitype/StillImage" /></cc:Work></rdf:RDF></metadata><g
     inkscape:groupmode="layer"
     id="layer12"
     inkscape:label="Layer 5"
     transform="translate(-26.4154,-64.421603)"><path
       id="path37-3"
       style="display:inline;fill:#000000;stroke-width:0.259138"
       inkscape:label="currShip"
       d="m 75.730738,64.421603 v 2.495455 l -1.332736,-0.09973 c 0,0 0.951782,0.444441 1.332736,0.626835 v 0.153996 l -0.0083,0.0041 0.0083,-0.0036 v 4.265372 h -0.17415 v 6.767029 l -3.257166,-0.153479 -5.16e-4,0.0036 -1.456759,0.101803 v -0.132292 l -0.248047,-0.04289 -0.0052,-0.187069 -1.313099,0.57981 -3.929992,-0.03152 0.160713,-0.100769 c -0.02289,-0.407381 -0.05631,-1.000924 -0.110587,-1.932698 l 0.796334,-0.411345 -0.226343,-0.28267 -0.593246,0.30179 c -0.05172,-0.878311 -0.09997,-1.671934 -0.112654,-1.770434 -0.0081,-0.06302 -0.02357,-0.09283 -0.04237,-0.102319 -0.05642,-0.02847 -0.141593,0.127124 -0.141593,0.127124 0,0 -0.0054,0.910878 -0.01344,1.903759 l -1.474845,0.751376 -1.246436,-1.066602 -0.362252,1.896008 -0.370003,-0.09043 -1.00304,-0.834575 2.052072,-1.254187 -0.1757,-0.413928 -2.211752,1.389579 -0.570507,-0.474389 -0.453203,0.158129 -0.103353,1.986443 0.830441,-0.04031 -0.10542,0.216524 -1.19631,-0.0098 v -0.05116 l -0.248047,-0.04289 -0.0894,-3.212207 -0.386023,-0.318327 0.08268,-2.610694 -2.011247,-0.08527 -0.0052,-0.07803 h -0.04031 v -3.15743 H 55.05448 v -1.746664 l 0.376721,-0.264066 -0.497127,-0.0057 0.02222,-0.988053 h -0.103353 l -0.0925,0.985986 -0.523999,-0.0062 0.434082,0.295073 v 1.72961 h -0.171565 v 1.607137 H 52.410714 V 72.34978 H 51.47227 l -0.459404,4.785754 -2.453597,-0.112138 -0.749308,-2.579687 -0.03772,0.02429 -0.926558,-2.626197 H 43.51152 l 0.03979,6.652824 -2.61276,0.06046 v 0.120923 l 0.437699,0.125573 -0.248563,2.018999 -0.09819,-0.0041 V 80.54363 l -0.09457,0.237195 -0.52865,-1.022677 -4.805908,-0.101803 -0.435116,-1.003556 -3.77393,0.464571 c -1.17626,-0.0393 -4.860168,-0.308508 -4.860168,-0.308508 l -0.07131,0.461471 c 0.124507,0.0276 4.054047,0.34003 4.658631,0.38809 l -0.02429,0.53175 1.077453,0.173116 0.101286,0.489376 -5.857524,-0.03049 1.033012,1.816943 0.487826,2.53783 13.002307,0.02274 v 0.0083 l 29.890165,0.05116 v 0.0052 l 25.456844,0.04393 0.24753,-3.54707 1.254704,-2.633431 -0.07131,-0.412895 h -2.161109 l -0.52865,0.979268 -3.897436,-0.04186 v -0.04082 l -0.945162,-0.0015 v 0.03256 l -0.545703,-0.0057 -0.350883,-0.336413 -1.388029,-0.09508 0.05168,-0.345715 2.692342,-0.01602 -0.348816,-0.771529 5.16506,-1.105359 -0.153996,-0.315743 -5.939172,0.885217 -1.165304,-0.527099 -5.044653,-0.128674 -0.239262,1.947684 c 0,0 2.141186,-0.07181 2.730066,-0.167948 0.588847,-0.0961 0.05684,0.643371 0.05684,0.643371 l -1.682585,-0.259415 -0.102319,0.531233 -0.401526,-0.0041 -0.944645,-1.055749 -0.894002,0.0016 -0.0021,0.04651 -3.018421,0.03927 -0.784448,0.137459 -1.372526,-0.06459 V 71.864259 H 75.951882 V 67.50897 l 1.189074,-0.485759 -1.189074,-0.0894 v -2.511992 z m -22.898344,6.618201 h 0.626318 v 1.270207 h -0.626318 z m 0.910022,0.0015 h 0.709517 v 1.294495 h -0.709517 z m -9.98027,1.116728 h 1.107943 v 1.4118 h -1.107943 z m 1.439706,0.03927 1.22008,0.0093 0.386023,1.158069 -1.646411,0.109037 z m 11.184847,0.765328 h 1.259871 v 0.742074 h -1.259871 z m -1.554427,0.01809 h 0.405143 v 0.775146 h -0.405143 z m 0.74259,0 h 0.541052 v 0.77773 h -0.541052 z m 9.483659,3.929993 h 5.17e-4 c -0.0053,0.591769 -0.01192,1.165474 -0.01912,1.584916 L 63.8927,77.513828 Z m -20.334676,1.029394 h 3.014803 v 0.284221 l -1.635043,-0.07545 -0.001,-0.01757 -1.158586,0.241846 v 0.114721 h -0.220141 z m 3.184301,0.0026 h 3.01532 v 0.803569 l -0.419096,0.01188 h -1.096573 l -1.049032,-0.472839 c -3.06e-4,0.005 -0.0012,0.02095 -0.0016,0.02584 l -0.207223,-0.0677 -0.241846,-0.01137 z m 3.297474,0.02274 h 3.015319 v 0.68833 l -3.015319,0.08475 z m 13.319083,0.620117 h 0.513664 c -0.0013,0.07542 -0.0027,0.119459 -0.0041,0.180867 l -0.50953,-0.0041 z m 7.478614,0.401526 h 2.113566 v 0.740523 h -2.113566 z m 3.79615,0.0047 h 0.91829 v 0.734838 h -0.91829 z m -1.194759,5.16e-4 h 0.811837 v 0.775664 h -0.811837 z m -7.889441,0.296623 h 2.208134 v 0.837158 H 66.715267 Z M 64.378459,79.307 h 2.085144 v 0.804085 h -2.085144 z m -2.974496,0.03359 h 2.67839 v 0.798918 h -2.67839 z m -27.198339,0.965316 h 1.061434 v 0.835608 h -1.061434 z m 4.905127,0.0217 h 1.027844 v 0.795301 h -1.027844 z m -3.629753,5.17e-4 h 1.780253 v 0.734839 h -1.780253 z m 1.97714,0.01344 h 1.467094 v 0.879016 h -1.467094 z" /></g></svg>
