<?xml version="1.0" encoding="UTF-8" standalone="no"?>
<!-- Created with Inkscape (http://www.inkscape.org/) -->

<svg
   width="103.42107mm"
   height="21.017323mm"
   viewBox="0 0 103.42107 21.017323"
   version="1.1"
   id="svg1"
   xml:space="preserve"
   xmlns="http://www.w3.org/2000/svg"
   xmlns:svg="http://www.w3.org/2000/svg"><defs
     id="defs1" /><g
     id="layer1"
     transform="translate(-21.866363,-77.587512)"><path
       id="path3-7"
       style="display:inline;fill:#000000;stroke-width:0.209387"
       d="m 43.317253,77.587512 -1.756482,0.729671 -1.698605,-0.235127 -1.616438,-0.267684 -1.428337,0.08992 h -1.42937 l -1.166854,0.430981 -0.663525,0.452686 -0.752409,0.3545 -0.319361,0.589111 -0.116788,1.163237 -1.290361,0.02739 -0.72657,0.110588 -1.25212,0.771529 -0.407727,-0.314709 -0.550871,0.06408 -1.059367,1.489832 -1.915645,0.577742 c 0,0 -1.261141,0.888168 -1.90221,1.380278 -0.641068,0.492101 -0.72867,1.313736 -1.126029,1.934249 -0.397368,0.620511 -0.184546,0.745934 -0.250114,1.143599 -6.88e-4,0.0054 0.225927,0.01046 0.2682,0.01602 -0.04939,0.0063 -0.290936,0.01078 -0.289904,0.01705 0.06556,0.397712 -0.147253,0.522571 0.250113,1.143083 0.397361,0.620456 0.484961,1.442655 1.12603,1.934765 0.641068,0.492111 1.902209,1.380278 1.902209,1.380278 l 1.915646,0.578259 1.059367,1.489315 0.55087,0.06408 0.407727,-0.31471 1.25212,0.771529 0.726571,0.110588 1.290361,0.02791 0.116788,1.16272 0.319361,0.589111 0.752408,0.354501 0.663526,0.452685 1.166337,0.430982 h 1.429887 l 1.428336,0.08992 1.616439,-0.267684 1.698605,-0.234611 1.756482,0.729671 h 2.270662 V 98.16145 h 4.599202 l -0.07441,-0.364835 0.404627,0.031 0.04858,0.162264 0.389123,0.288355 h 1.573548 l 0.269234,-0.374137 3.044258,0.03204 0.191203,0.341581 1.562696,0.0186 0.240295,-0.406177 1.581299,0.06873 11.62513,0.435632 9.614917,-0.364836 7.871871,-0.730704 9.7038,-1.425236 1.992126,-0.453203 8.17418,-2.074292 5.04207,-1.149284 3.08457,-0.491442 3.72432,-0.410828 2.64893,-0.27957 c 0,0 -0.0208,0.418082 0.31626,0.286805 0.33705,-0.131278 0.75075,0.01766 1.01079,-0.393775 0.26003,-0.411422 0.65571,-0.642424 0.78032,-1.23455 0.0985,-0.467747 0.19662,-0.931714 0.29507,-1.39268 h 0.007 l -5.1e-4,-0.4408 c -0.0934,-0.437814 -0.18664,-0.87735 -0.28009,-1.321366 -0.12462,-0.592125 -0.52029,-0.823127 -0.78031,-1.23455 -0.26004,-0.411423 -0.67373,-0.262498 -1.0108,-0.393774 -0.33703,-0.131278 -0.31625,0.28577 -0.31625,0.28577 l -2.64894,-0.279052 -3.72432,-0.410311 -3.08457,-0.492477 -5.04207,-1.149284 -8.17417,-2.074292 -1.992132,-0.452168 -9.7038,-1.425753 -7.871871,-0.731222 -9.614917,-0.364318 -11.62513,0.436149 -1.581299,0.06821 -0.240295,-0.406177 -1.562696,0.01912 -0.191203,0.341064 -3.044258,0.03152 -0.269234,-0.373621 h -1.573548 l -0.389123,0.288872 -0.04858,0.161747 -0.404627,0.03152 0.0739,-0.365353 h -4.598686 v -0.442867 z m 23.552567,1.484664 2.996716,1.51722 1.957504,2.244824 2.873726,0.295073 1.706356,0.782898 0.790133,1.545125 0.276468,1.489315 0.0801,5.17e-4 v 0.328145 l -0.0098,0.05168 0.06149,0.330213 v 0.328145 l -0.183451,5.17e-4 -0.276469,1.489831 -0.790649,1.545126 -1.705839,0.782898 -2.873727,0.294555 -1.95802,2.244825 -2.996199,1.51722 -3.663343,-0.497644 -1.389579,-2.601392 -1.62419,-0.197404 -0.828373,0.583427 -1.624191,0.04186 -0.673343,-1.930632 -1.380795,0.52555 -0.699699,-2.841687 -1.054716,1.199926 H 52.742 l -1.068668,-0.593245 -0.31781,-2.113566 0.07545,-0.09715 0.294039,-1.954919 1.068669,-0.593246 h 1.138432 l 1.054199,1.199927 0.699699,-2.841687 1.380794,0.525549 0.673344,-1.930631 1.62419,0.04238 0.828373,0.58291 1.624191,-0.197404 1.389579,-2.601392 z m -38.198185,2.852022 0.211357,0.283187 -0.410828,0.04237 -0.01602,-0.02481 z m 16.084289,1.005107 2.74867,0.386023 -0.503845,1.977657 1.036629,1.075387 0.03256,1.338936 0.01499,5.17e-4 -0.0036,1.788004 -1.012858,1.098124 0.547253,1.966289 -2.738851,0.447001 0.208773,-2.171444 -0.645955,0.575676 -0.697115,0.08475 -0.979269,0.573608 -1.825728,0.01602 -1.431954,-0.348299 -1.142049,-0.805119 -0.602031,-0.734322 -1.367358,-0.01912 -5.705595,-0.149862 -0.0083,-0.727604 5.690609,-0.04031 1.188041,-0.0739 -0.03772,-0.384989 -0.148828,0.0098 -6.612,-0.278019 -0.03876,5.17e-4 v -0.0021 l -0.0093,-5.17e-4 -0.0088,-0.817005 6.765996,-0.06821 0.05478,-0.736906 -1.189075,-0.04651 -5.690609,0.08527 -0.0078,-0.727604 5.70146,-0.275952 1.366325,-0.05013 0.586011,-0.747758 1.123446,-0.829406 1.424202,-0.380339 1.825212,-0.02429 0.992187,0.551905 0.698666,0.06925 0.658357,0.561206 z m 38.041606,0.171566 -0.256315,2.166276 0.658358,-0.561206 0.698148,-0.06925 0.992188,-0.551904 1.825211,0.02429 1.424203,0.380339 1.123446,0.829406 0.58601,0.747241 1.366842,0.05064 5.700944,0.275953 -0.0078,0.727604 -5.690608,-0.08527 -1.189075,0.04651 0.05478,0.736906 6.766512,0.06821 -0.0093,0.817005 -0.0088,5.16e-4 v 0.0021 l -0.03876,-5.16e-4 -6.611999,0.278019 -0.149345,-0.0098 -0.03721,0.38499 1.187524,0.0739 5.690609,0.04031 -0.0083,0.727604 -5.705595,0.149861 -1.366842,0.01912 -0.602547,0.734322 -1.141533,0.805119 -1.43247,0.348299 -1.825729,-0.01602 -0.979268,-0.573608 -0.697115,-0.08475 -0.645956,-0.575675 0.20929,2.170927 -2.739368,-0.446485 0.547254,-1.966288 -1.012342,-1.098124 -0.0041,-1.788005 0.01499,-5.16e-4 0.03256,-1.338937 1.036629,-1.075386 -0.503329,-1.977657 z m -49.525659,12.361519 0.376721,0.08888 -0.188102,0.252181 -0.215491,-0.300757 z" /></g></svg>
