<?xml version="1.0" standalone="no"?>
<!DOCTYPE svg PUBLIC "-//W3C//DTD SVG 20010904//EN"
 "http://www.w3.org/TR/2001/REC-SVG-20010904/DTD/svg10.dtd">
<svg version="1.0" xmlns="http://www.w3.org/2000/svg"
 width="1276.000000pt" height="1280.000000pt" viewBox="0 0 1276.000000 1280.000000"
 preserveAspectRatio="xMidYMid meet">
<metadata>
Created by potrace 1.15, written by Peter Selinger 2001-2017
</metadata>
<g transform="translate(0.000000,1280.000000) scale(0.100000,-0.100000)"
fill="#000000" stroke="none">
<path d="M11920 12598 c-91 -111 -171 -209 -177 -219 -10 -14 4 -74 85 -350
l97 -334 300 0 300 0 117 216 118 216 -117 254 c-64 140 -117 255 -118 257 -2
2 -436 162 -440 162 0 0 -75 -91 -165 -202z"/>
<path d="M6230 12667 c0 -134 -193 -2204 -215 -2304 -6 -26 -14 -28 -39 -10
-15 11 -18 42 -25 287 l-8 275 -1 -267 c-1 -148 -6 -268 -11 -268 -4 0 -41 15
-82 34 -130 60 -332 120 -494 147 -51 9 -164 14 -313 14 l-232 0 -9 31 c-5 17
-100 394 -211 837 -112 444 -205 805 -207 803 -2 -2 49 -221 112 -487 224
-932 285 -1192 283 -1195 -2 -1 -43 -9 -93 -19 -110 -20 -268 -65 -387 -109
-61 -23 -90 -30 -96 -22 -5 6 -78 133 -162 283 -85 149 -156 270 -158 269 -1
-2 49 -140 113 -306 63 -167 113 -305 112 -306 -1 -1 -35 -18 -75 -38 -63 -32
-160 -88 -229 -133 -21 -14 -23 -12 -72 84 -27 54 -50 95 -50 90 -1 -4 20 -48
45 -98 25 -51 42 -95 37 -99 -4 -4 -53 -42 -108 -83 -259 -195 -478 -427 -657
-698 -79 -118 -179 -302 -219 -401 -12 -32 -25 -58 -29 -58 -3 0 -134 79 -290
175 -157 96 -271 163 -255 148 34 -31 442 -386 482 -419 l25 -21 -17 -59 c-10
-33 -19 -66 -21 -74 -34 -207 -43 -414 -24 -535 l7 -50 2 63 1 62 273 0 c205
0 276 -3 286 -13 11 -9 13 -9 7 1 -4 6 -5 12 -2 12 9 0 311 -251 315 -262 2
-7 -13 -8 -40 -4 -24 3 -103 8 -175 12 -277 14 -546 -68 -814 -249 -86 -58
-207 -157 -265 -216 -21 -23 -44 -41 -50 -41 -5 0 -185 65 -399 145 -214 80
-392 145 -395 145 -16 -1 52 -28 384 -155 198 -75 370 -141 383 -146 24 -9 23
-9 -18 -57 -98 -111 -195 -275 -257 -436 -47 -121 -63 -215 -62 -354 1 -82 4
-105 9 -77 4 22 8 34 9 28 1 -10 43 -13 176 -13 133 0 175 -3 176 -12 0 -7 9
10 20 37 10 28 16 37 13 20 -19 -95 -33 -185 -34 -216 0 -20 -2 -38 -4 -40 -3
-2 -53 -1 -113 3 -59 3 -137 7 -173 8 -36 1 -251 13 -479 26 -227 13 -434 23
-460 23 -51 -2 22 -8 534 -44 193 -13 359 -26 370 -29 21 -4 295 -21 306 -18
8 2 23 -198 15 -206 -3 -3 -68 -7 -143 -9 -136 -3 -201 -13 -86 -13 33 0 100
-3 149 -6 l90 -7 18 -86 c19 -93 79 -286 97 -311 8 -12 9 -10 4 9 -5 14 -3 21
3 17 5 -3 15 8 22 24 7 17 16 33 21 36 5 3 0 -15 -11 -40 -24 -57 -80 -264
-80 -298 0 -14 -14 -40 -32 -61 -33 -35 -34 -36 -283 -87 -137 -29 -252 -54
-254 -56 -9 -9 34 -1 259 46 129 27 236 47 237 46 2 -2 -19 -37 -47 -79 -108
-163 -197 -376 -222 -532 l-13 -80 -280 -142 c-154 -78 -277 -142 -274 -143 3
0 128 59 277 130 150 72 273 130 274 130 2 0 1 -28 -2 -62 l-5 -62 -90 -48
c-49 -26 -87 -48 -83 -48 3 0 90 40 192 89 103 50 185 87 182 83 -2 -4 -45
-27 -95 -52 l-91 -44 2 -51 2 -50 3 45 4 45 132 -5 132 -5 75 39 c41 22 71 35
67 30 -10 -11 -320 -187 -677 -384 l-275 -153 -64 16 c-62 14 -68 14 -283 -24
-122 -21 -222 -40 -224 -42 -2 -2 5 -52 16 -112 11 -60 20 -115 20 -122 0 -7
-98 -62 -217 -122 -120 -61 -215 -110 -212 -110 3 -1 102 46 220 103 l214 103
12 -66 c7 -36 24 -126 37 -199 l23 -133 -46 -24 c-53 -28 -51 -32 4 -9 25 10
40 12 44 5 4 -5 20 -85 36 -176 l29 -167 472 -236 c260 -130 476 -234 479
-230 3 3 52 115 109 249 l103 244 -53 355 c-29 195 -53 366 -53 380 -1 24 11
29 207 98 495 174 759 242 943 242 91 0 163 -14 157 -30 -2 -4 -78 -73 -170
-154 -93 -82 -168 -150 -168 -152 0 -2 80 63 177 145 132 110 181 147 190 139
29 -23 36 -88 18 -162 -75 -315 -530 -948 -1783 -2476 -102 -124 -192 -234
-201 -246 -33 -42 67 65 519 556 881 957 1705 1840 1717 1840 16 0 -453 -532
-1249 -1417 -219 -244 -396 -443 -394 -443 3 0 128 134 278 297 614 670 1153
1225 1338 1379 164 137 240 173 248 117 2 -15 -18 -48 -64 -105 -153 -188
-260 -406 -285 -585 -13 -88 -24 -109 -287 -553 -212 -357 -815 -1343 -864
-1413 -11 -16 -19 -30 -17 -31 2 -2 65 80 139 182 210 290 720 966 890 1182
172 218 429 530 436 530 3 0 -12 -21 -32 -47 -50 -63 -63 -82 -44 -65 20 18
880 18 881 0 0 -7 9 10 19 37 34 91 21 31 -36 -166 -112 -394 -305 -965 -535
-1585 -65 -177 -122 -331 -125 -341 -3 -10 65 115 151 277 284 534 510 939
695 1245 130 215 347 546 357 544 5 -1 50 -1 101 0 l92 1 1 28 c1 15 3 20 6
11 5 -21 -97 -705 -247 -1638 -22 -140 -39 -259 -37 -265 2 -5 31 158 65 364
157 950 269 1583 271 1528 l1 -28 154 0 c153 0 155 0 158 23 2 13 11 -9 22
-53 23 -95 53 -163 104 -237 49 -70 94 -124 87 -103 -4 12 4 15 38 15 39 0 43
-2 40 -20 -4 -16 -3 -17 6 -5 15 24 48 204 57 310 4 54 10 84 13 70 4 -18 13
-26 31 -27 14 -1 95 -5 180 -8 85 -4 170 -11 188 -15 30 -8 32 -7 33 18 0 15
7 -5 14 -45 18 -98 83 -283 100 -283 2 0 2 7 -2 16 -5 14 2 16 46 13 45 -4 51
-2 51 15 0 37 9 10 58 -169 109 -395 274 -1185 393 -1878 6 -37 13 -67 14 -65
2 2 -1 95 -6 208 -28 645 -40 1052 -44 1520 l-5 525 27 -87 c15 -48 28 -86 31
-84 2 3 -10 59 -27 126 -32 125 -39 181 -16 120 7 -19 14 -30 14 -24 1 7 41
14 109 18 130 8 251 21 442 47 79 11 172 22 207 24 l62 4 157 -257 c187 -307
408 -688 844 -1460 178 -314 324 -571 326 -569 1 1 -62 207 -140 457 -79 250
-214 678 -299 950 -86 272 -192 620 -237 773 l-81 278 61 73 c33 40 60 75 60
78 0 3 -35 8 -77 12 -42 3 -80 9 -85 14 -13 13 -68 305 -79 423 -19 204 14
301 111 330 64 19 169 -8 326 -86 108 -53 145 -77 205 -134 41 -38 246 -231
456 -428 210 -197 382 -361 382 -364 1 -3 -33 -16 -74 -29 -41 -13 -75 -27
-75 -32 0 -16 123 -278 130 -278 4 0 38 25 76 56 38 31 84 68 102 82 l33 25
97 -94 c53 -52 131 -126 173 -164 41 -39 -2 5 -95 96 l-171 167 23 18 23 19
-80 79 c-78 78 -80 78 -111 67 l-33 -11 -225 218 c-123 119 -304 294 -402 387
-97 94 -175 172 -174 174 4 5 364 -241 564 -387 326 -238 1485 -1121 1668
-1270 23 -19 42 -32 42 -29 0 2 -114 103 -252 223 -1070 927 -1808 1633 -1909
1826 -61 118 21 110 306 -31 225 -112 742 -415 1053 -619 12 -8 22 -12 22 -9
0 4 -28 25 -62 48 -306 207 -845 620 -833 639 3 6 0 8 -7 5 -7 -3 -47 27 -88
66 l-75 70 75 -60 75 -61 494 -3 494 -2 -119 58 c-151 73 -129 67 49 -13 l137
-62 2 -57 2 -56 3 53 c4 49 6 53 26 46 33 -10 461 -216 748 -359 140 -70 250
-123 244 -117 -5 5 -127 70 -270 145 -143 75 -368 194 -500 265 l-240 128 -10
85 c-6 46 -7 85 -4 87 4 2 30 -8 58 -22 28 -14 54 -26 58 -26 4 1 -21 16 -57
34 l-64 33 -23 119 c-27 134 -76 288 -127 399 -19 41 -32 75 -29 75 11 0 812
-359 1067 -479 60 -28 111 -50 113 -48 1 2 -132 68 -297 148 -206 98 -295 145
-283 150 10 3 65 14 123 24 58 10 108 21 112 24 14 12 35 183 24 187 -96 36
-221 72 -227 67 -3 -5 -21 -69 -39 -143 -18 -74 -35 -138 -37 -142 -5 -9 -607
290 -612 305 -10 27 -123 184 -184 255 -72 84 -191 191 -277 249 -28 19 -48
38 -45 42 2 5 -1 8 -8 8 -6 -1 -59 22 -117 52 -58 30 -121 60 -140 67 l-35 14
40 -7 c22 -3 42 -10 43 -14 2 -5 8 -6 13 -3 16 10 668 -146 1182 -282 115 -31
211 -54 213 -52 2 3 -105 35 -238 72 -133 37 -379 108 -547 158 -168 50 -320
94 -338 99 -29 9 -31 12 -23 34 11 29 7 322 -4 348 -8 16 1 17 115 17 120 -1
498 -12 824 -26 88 -4 158 -4 155 -1 -3 3 -79 10 -170 16 -305 20 -806 63
-907 77 -25 4 -43 12 -43 19 0 7 -13 45 -29 85 l-29 71 279 -3 c153 -2 279 0
279 3 0 3 -82 11 -182 17 -101 7 -233 17 -294 23 l-111 12 -29 46 c-16 25 -30
49 -32 54 -2 4 259 8 580 8 321 1 824 5 1118 8 429 6 475 8 235 9 -1934 13
-1958 13 -1983 35 -12 11 -19 24 -15 28 14 12 272 54 488 78 172 20 301 31
495 42 107 6 200 16 205 21 7 7 -18 8 -75 4 -204 -15 -866 -26 -1077 -17 -191
8 -227 12 -253 28 l-30 19 95 47 c52 26 95 45 95 42 0 -3 -39 -25 -87 -49 -49
-25 -83 -45 -78 -45 6 0 21 6 35 14 21 12 143 14 772 15 702 0 747 1 751 18 3
9 6 -10 7 -43 1 -52 3 -56 10 -31 6 17 5 84 -1 160 -37 497 -219 937 -533
1288 -82 92 -93 109 -78 116 9 5 88 37 175 72 87 34 156 64 154 66 -1 2 -85
-29 -184 -68 l-181 -71 -61 54 c-189 166 -464 301 -736 359 -116 25 -434 39
-523 22 -30 -5 -50 -6 -45 -3 32 27 213 163 408 306 248 181 274 202 205 163
-149 -85 -481 -268 -485 -268 -2 0 -86 -46 -187 -102 -243 -135 -590 -310
-657 -331 -73 -23 -123 -30 -140 -18 -37 24 40 152 223 367 54 63 130 147 168
187 l70 72 -66 -75 -65 -75 82 -2 c45 -2 193 -4 328 -5 l247 -3 -5 80 c-7 128
-31 280 -65 418 l-31 128 204 205 204 204 46 -93 47 -92 176 -20 c147 -17 176
-18 171 -7 -3 8 -55 97 -116 198 l-110 184 -40 -20 c-21 -11 -39 -19 -39 -17
0 2 70 74 157 160 86 87 153 157 149 157 -12 0 -460 -394 -770 -678 l-110
-100 -31 77 c-17 42 -37 87 -44 100 -12 22 -9 27 36 75 79 82 216 236 210 236
-3 0 -63 -63 -133 -140 l-127 -141 -42 80 c-130 241 -329 468 -553 628 -300
215 -688 323 -1048 294 -71 -6 -139 -14 -151 -17 l-21 -6 24 104 c14 56 77
294 140 526 64 233 114 425 112 427 -2 2 -57 -181 -122 -408 -166 -577 -191
-653 -216 -660 -18 -5 -19 -1 -15 31 9 67 84 733 105 937 11 110 27 260 36
334 8 74 13 136 11 137 -2 2 -9 -29 -16 -68 -34 -193 -223 -1244 -238 -1320
l-17 -87 -90 -31 c-133 -46 -303 -135 -466 -243 l-25 -16 1 82 2 82 -12 -87
c-7 -56 -17 -93 -28 -104 -15 -16 -21 -13 -80 39 -35 31 -75 66 -90 79 l-27
23 -12 1250 c-6 688 -13 1252 -15 1254 -2 2 -4 -3 -4 -12z m2440 -3920 c0 -2
-19 -21 -42 -42 l-43 -40 40 43 c36 39 45 47 45 39z m190 0 c0 -2 -12 -14 -27
-28 l-28 -24 24 28 c23 25 31 32 31 24z m-1333 -59 c-3 -7 -5 -2 -5 12 0 14 2
19 5 13 2 -7 2 -19 0 -25z m160 0 c-3 -8 -6 -5 -6 6 -1 11 2 17 5 13 3 -3 4
-12 1 -19z m-407 8 c0 -2 -8 -10 -17 -17 -16 -13 -17 -12 -4 4 13 16 21 21 21
13z m330 1 c0 -2 -17 -19 -37 -38 l-38 -34 34 38 c33 34 41 42 41 34z m270
-37 c-6 -11 -13 -20 -16 -20 -2 0 0 9 6 20 6 11 13 20 16 20 2 0 0 -9 -6 -20z
m55 -75 c-22 -70 -33 -124 -18 -87 3 7 23 12 49 12 33 0 43 -3 38 -12 -12 -23
44 46 61 76 17 27 17 28 -3 22 -12 -4 -23 -2 -28 5 -4 8 -3 9 4 5 6 -4 25 0
42 9 16 8 30 13 30 9 0 -13 -145 -209 -189 -257 -54 -58 -68 -51 -52 25 15 68
81 281 86 276 2 -2 -7 -40 -20 -83z m94 45 c0 -10 -3 -8 -9 5 -12 27 -12 43 0
25 5 -8 9 -22 9 -30z m252 3 c-12 -20 -14 -14 -5 12 4 9 9 14 11 11 3 -2 0
-13 -6 -23z m-1066 -13 c-16 -16 -31 -28 -33 -25 -4 4 48 54 57 55 3 0 -8 -13
-24 -30z m462 -2 c-3 -7 -5 -2 -5 12 0 14 2 19 5 13 2 -7 2 -19 0 -25z m867
11 c-36 -40 -199 -176 -248 -208 -52 -32 -86 -40 -86 -18 1 6 37 50 82 97 44
47 68 69 54 49 l-27 -37 36 -4 c32 -4 43 3 117 68 86 75 105 89 72 53z m-695
-21 c-45 -86 -132 -188 -160 -188 -23 0 -32 30 -30 109 2 87 11 91 12 5 1 -38
4 -59 6 -46 4 18 11 22 44 22 29 0 38 -4 34 -12 -14 -28 48 50 71 90 27 44 43
58 23 20z m418 -10 c-2 -7 -8 -24 -12 -38 l-7 -25 29 25 c25 22 25 21 -2 -6
-18 -17 -35 -39 -39 -49 -3 -10 -9 -16 -11 -13 -6 6 35 118 42 118 3 0 3 -6 0
-12z m-4835 -503 c7 -13 -1 -10 -23 11 -19 17 -89 75 -156 129 -68 53 -123 99
-123 102 0 2 38 -25 85 -61 47 -36 85 -62 85 -59 0 4 -55 64 -122 133 -68 69
-41 44 60 -55 101 -99 188 -189 194 -200z m665 318 c-3 -10 -5 -4 -5 12 0 17
2 24 5 18 2 -7 2 -21 0 -30z m24 -48 c15 10 10 -1 -6 -15 -13 -11 -15 -8 -14
16 1 17 3 22 6 11 2 -9 9 -15 14 -12z m-1036 -35 c10 -11 16 -20 13 -20 -3 0
-13 9 -23 20 -10 11 -16 20 -13 20 3 0 13 -9 23 -20z m135 -117 c0 -8 -55 34
-80 63 -15 17 -5 12 28 -15 28 -24 52 -45 52 -48z m-563 30 c-3 -10 -5 -4 -5
12 0 17 2 24 5 18 2 -7 2 -21 0 -30z m7061 -1723 c7 -11 11 -20 9 -20 -2 0
-12 9 -22 20 -10 11 -14 20 -9 20 5 0 15 -9 22 -20z m53 -72 c15 -28 5 -21
-21 15 -15 20 -17 27 -6 18 9 -8 22 -23 27 -33z m-44 -1144 c-3 -3 -12 -4 -19
-1 -8 3 -5 6 6 6 11 1 17 -2 13 -5z m-7577 -729 c0 -3 -49 -30 -110 -60 -60
-30 -110 -53 -110 -50 0 4 206 112 218 114 1 1 2 -1 2 -4z m290 -50 c0 -2 -18
-14 -40 -25 -22 -11 -40 -18 -40 -15 0 2 17 13 38 24 42 23 42 23 42 16z m238
-280 c25 -27 49 -49 53 -47 30 8 -13 -19 -188 -121 -280 -162 -510 -287 -526
-287 -8 0 -126 27 -261 60 -136 33 -253 60 -261 60 -8 0 -15 3 -15 8 0 7 191
100 640 311 118 56 260 123 315 149 l99 48 50 -66 c27 -36 70 -87 94 -115z
m-1028 -215 c-107 -54 -202 -99 -210 -99 -16 1 378 198 395 198 6 0 -78 -45
-185 -99z m7875 -150 c21 -22 37 -40 34 -40 -3 0 -23 18 -44 40 -21 22 -37 40
-34 40 3 0 23 -18 44 -40z m1185 -85 c0 -3 -18 4 -40 15 -22 11 -40 23 -40 25
0 3 18 -4 40 -15 22 -11 40 -23 40 -25z m70 -41 c0 -2 -13 2 -30 11 -16 9 -30
18 -30 21 0 2 14 -2 30 -11 17 -9 30 -18 30 -21z m-4820 -654 c-12 -7 -12 -12
-1 -34 8 -14 18 -23 23 -20 4 3 8 0 8 -5 0 -6 23 5 50 25 68 49 63 37 -8 -18
l-57 -44 -22 47 c-15 34 -18 49 -10 53 21 8 32 6 17 -4z m-2070 -483 c0 -2
-10 -12 -22 -23 l-23 -19 19 23 c18 21 26 27 26 19z m1360 -46 c-5 -11 -15
-23 -21 -27 -6 -3 -3 5 6 20 20 30 30 35 15 7z m-563 -23 c-3 -8 -6 -5 -6 6
-1 11 2 17 5 13 3 -3 4 -12 1 -19z m690 -20 c-3 -8 -6 -5 -6 6 -1 11 2 17 5
13 3 -3 4 -12 1 -19z m-179 -33 c-11 -20 -23 -34 -25 -31 -5 5 35 66 42 66 3
0 -5 -16 -17 -35z m2792 -57 c0 -17 -10 -6 -25 25 l-16 32 20 -25 c11 -14 21
-28 21 -32z"/>
<path d="M4372 12280 c0 -14 2 -19 5 -12 2 6 2 18 0 25 -3 6 -5 1 -5 -13z"/>
<path d="M3275 11522 c-33 -53 -61 -99 -63 -103 -3 -7 169 -81 176 -75 5 6
-39 258 -47 268 -3 3 -33 -37 -66 -90z"/>
<path d="M7561 11514 c0 -11 3 -14 6 -6 3 7 2 16 -1 19 -3 4 -6 -2 -5 -13z"/>
<path d="M560 9878 c-63 -105 -116 -196 -118 -202 -3 -11 370 -652 391 -672
11 -11 709 -247 712 -241 3 4 116 811 115 823 0 9 -310 296 -410 381 -22 18
-66 27 -281 57 -139 20 -263 38 -274 41 -18 4 -38 -25 -135 -187z"/>
<path d="M9389 9753 c-13 -16 -12 -17 4 -4 9 7 17 15 17 17 0 8 -8 3 -21 -13z"/>
<path d="M9265 8490 c-3 -6 1 -7 9 -4 18 7 21 14 7 14 -6 0 -13 -4 -16 -10z"/>
<path d="M647 8342 c-48 -48 -87 -94 -86 -102 0 -8 28 -87 62 -175 l62 -160
146 -3 146 -3 36 135 c21 73 37 140 37 149 0 11 -298 247 -313 247 -1 0 -42
-39 -90 -88z"/>
<path d="M9292 8335 c0 -16 2 -22 5 -12 2 9 2 23 0 30 -3 6 -5 -1 -5 -18z"/>
<path d="M2662 8050 c0 -14 2 -19 5 -12 2 6 2 18 0 25 -3 6 -5 1 -5 -13z"/>
<path d="M11030 8050 c-8 -5 -10 -10 -5 -10 6 0 17 5 25 10 8 5 11 10 5 10 -5
0 -17 -5 -25 -10z"/>
<path d="M10980 8030 c-8 -5 -10 -10 -5 -10 6 0 17 5 25 10 8 5 11 10 5 10 -5
0 -17 -5 -25 -10z"/>
<path d="M10930 8010 c-8 -5 -10 -10 -5 -10 6 0 17 5 25 10 8 5 11 10 5 10 -5
0 -17 -5 -25 -10z"/>
<path d="M2671 7984 c0 -11 3 -14 6 -6 3 7 2 16 -1 19 -3 4 -6 -2 -5 -13z"/>
<path d="M12128 7751 c-59 -32 -110 -60 -113 -62 -3 -4 77 -289 108 -383 4
-12 197 253 197 270 0 16 -70 217 -78 225 -4 4 -55 -19 -114 -50z"/>
<path d="M1330 7760 c8 -5 20 -10 25 -10 6 0 3 5 -5 10 -8 5 -19 10 -25 10 -5
0 -3 -5 5 -10z"/>
<path d="M1365 7330 l-96 -192 78 -119 78 -120 12 183 c7 101 16 239 21 308 5
69 7 127 6 129 -2 2 -46 -83 -99 -189z"/>
<path d="M1842 6445 c0 -16 2 -22 5 -12 2 9 2 23 0 30 -3 6 -5 -1 -5 -18z"/>
<path d="M673 6393 c9 -2 23 -2 30 0 6 3 -1 5 -18 5 -16 0 -22 -2 -12 -5z"/>
<path d="M828 6383 c17 -2 47 -2 65 0 17 2 3 4 -33 4 -36 0 -50 -2 -32 -4z"/>
<path d="M9648 6308 c5 -5 16 -8 23 -6 8 3 3 7 -10 11 -17 4 -21 3 -13 -5z"/>
<path d="M10838 6303 c6 -2 18 -2 25 0 6 3 1 5 -13 5 -14 0 -19 -2 -12 -5z"/>
<path d="M11183 6175 c0 -27 2 -38 4 -22 2 15 2 37 0 50 -2 12 -4 0 -4 -28z"/>
<path d="M12011 5303 c-32 -123 -42 -166 -39 -169 2 -2 58 8 124 21 65 14 123
25 128 25 7 0 -42 39 -166 134 l-37 27 -10 -38z"/>
<path d="M9841 5266 c14 -12 118 -53 113 -45 -4 8 7 9 37 5 24 -3 4 6 -46 19
-86 24 -113 29 -104 21z"/>
<path d="M10040 5200 c0 -11 2 -20 4 -20 2 0 6 9 9 20 3 11 1 20 -4 20 -5 0
-9 -9 -9 -20z"/>
<path d="M1668 5183 c6 -2 18 -2 25 0 6 3 1 5 -13 5 -14 0 -19 -2 -12 -5z"/>
<path d="M1590 5170 c-20 -6 -21 -8 -5 -8 11 0 31 4 45 8 20 6 21 8 5 8 -11 0
-31 -4 -45 -8z"/>
<path d="M1528 5153 c6 -2 18 -2 25 0 6 3 1 5 -13 5 -14 0 -19 -2 -12 -5z"/>
<path d="M1478 5143 c7 -3 16 -2 19 1 4 3 -2 6 -13 5 -11 0 -14 -3 -6 -6z"/>
<path d="M1942 4300 c0 -14 2 -19 5 -12 2 6 2 18 0 25 -3 6 -5 1 -5 -13z"/>
<path d="M10970 3826 c0 -2 7 -7 16 -10 8 -3 12 -2 9 4 -6 10 -25 14 -25 6z"/>
<path d="M11020 3800 c8 -5 20 -10 25 -10 6 0 3 5 -5 10 -8 5 -19 10 -25 10
-5 0 -3 -5 5 -10z"/>
<path d="M9263 3733 c-7 -3 -13 -10 -13 -16 0 -8 22 -12 64 -12 35 0 63 1 61
3 -8 8 -101 28 -112 25z"/>
<path d="M2999 3603 c-13 -16 -12 -17 4 -4 16 13 21 21 13 21 -2 0 -10 -8 -17
-17z"/>
<path d="M8545 3516 c-16 -7 -37 -22 -47 -32 -16 -19 -43 -102 -35 -110 3 -3
7 5 10 18 4 13 22 32 44 43 21 11 44 26 51 32 7 7 19 13 26 13 8 0 19 7 26 15
7 8 24 16 39 16 25 1 25 2 -4 9 -46 12 -77 11 -110 -4z"/>
<path d="M10090 3224 c0 -5 18 -76 39 -159 l38 -150 109 0 109 0 12 89 c7 49
12 91 10 92 -2 3 -212 93 -304 131 -7 3 -13 1 -13 -3z"/>
<path d="M1975 1508 l-40 -43 43 40 c39 36 47 45 39 45 -2 0 -21 -19 -42 -42z"/>
<path d="M1879 1403 l-24 -28 28 24 c25 23 32 31 24 31 -2 0 -14 -12 -28 -27z"/>
<path d="M2438 1276 c-136 -83 -247 -154 -248 -157 0 -9 302 -41 310 -33 11
13 191 337 188 339 -2 1 -114 -66 -250 -149z"/>
<path d="M6178 735 c-63 -110 -73 -135 -60 -139 162 -47 232 -66 244 -66 10 0
-1 46 -42 170 -30 94 -57 170 -60 170 -3 0 -39 -61 -82 -135z"/>
<path d="M5072 550 c0 -19 2 -27 5 -17 2 9 2 25 0 35 -3 9 -5 1 -5 -18z"/>
<path d="M5061 494 c0 -11 3 -14 6 -6 3 7 2 16 -1 19 -3 4 -6 -2 -5 -13z"/>
</g>
</svg>
