<?xml version="1.0" encoding="UTF-8" standalone="no"?>
<!-- Created with Inkscape (http://www.inkscape.org/) -->

<svg
   width="45.920708mm"
   height="14.938623mm"
   viewBox="0 0 45.920708 14.938623"
   version="1.1"
   id="svg1"
   xml:space="preserve"
   xmlns:inkscape="http://www.inkscape.org/namespaces/inkscape"
   xmlns:sodipodi="http://sodipodi.sourceforge.net/DTD/sodipodi-0.dtd"
   xmlns="http://www.w3.org/2000/svg"
   xmlns:svg="http://www.w3.org/2000/svg"
   xmlns:rdf="http://www.w3.org/1999/02/22-rdf-syntax-ns#"
   xmlns:cc="http://creativecommons.org/ns#"
   xmlns:dc="http://purl.org/dc/elements/1.1/"><defs
     id="defs1" /><sodipodi:namedview
     id="base"
     pagecolor="#ffffff"
     bordercolor="#000000"
     borderopacity="0.3"
     inkscape:pageopacity="0.0"
     inkscape:pageshadow="2"
     inkscape:zoom="0.35"
     inkscape:cx="400"
     inkscape:cy="560"
     inkscape:document-units="mm"
     inkscape:showpageshadow="2"
     inkscape:pagecheckerboard="0"
     inkscape:deskcolor="#d1d1d1" /><metadata
     id="metadata1"><rdf:RDF><cc:Work
         rdf:about=""><dc:format>image/svg+xml</dc:format><dc:type
           rdf:resource="http://purl.org/dc/dcmitype/StillImage" /></cc:Work></rdf:RDF></metadata><g
     inkscape:groupmode="layer"
     id="layer13"
     inkscape:label="Layer 6"
     transform="translate(-76.679041,-31.990295)"><path
       id="path142"
       style="display:inline;fill:#000000;stroke-width:0.269835"
       inkscape:label="currShip"
       d="m 92.044511,31.990295 -0.217041,0.213424 0.237711,0.05581 -0.08268,0.825789 -0.455786,-0.02429 0.436149,0.223759 -0.166398,1.664498 -0.521415,-0.02946 5.17e-4,0.02842 -0.414445,-0.01654 -0.09974,0.180867 -0.810286,-0.03204 0.0217,4.214213 -2.507858,0.06821 v 0.136943 l 0.42013,0.141593 -0.214457,2.050004 -0.118339,-0.06253 v -0.01912 l -0.0057,0.01602 -0.255281,-0.134876 -0.337447,-0.768945 -4.612639,-0.114722 -0.03049,-0.08423 -3.254065,0.919324 0.09095,0.516247 -0.746208,-0.0047 v 0.0036 l -1.722375,-0.01034 0.99167,2.052588 0.468189,2.866492 1.063501,0.0026 v -0.01654 l 8.262544,0.01705 v 0.0093 l 19.310968,0.03927 0.002,-0.01912 12.32276,0.02429 v 0.0016 l 2.05672,0.0041 0.23771,-4.00699 1.20458,-2.975012 -0.0687,-0.466122 h -0.007 l -0.14831,-1.430403 -3.98735,-0.03101 -0.92553,1.88619 -1.28984,0.04754 -1.09916,1.892391 -2.33112,-0.0155 -0.29972,-1.651579 -0.71056,0.04703 -0.17725,-0.114722 -1.42265,-0.258382 -0.0982,0.60048 -0.38551,-0.0047 -0.9064,-1.192692 -0.45631,10e-4 -0.0486,-0.20929 -0.56638,0.0072 0.009,-0.126091 1.56476,-0.160197 -0.20309,-0.850594 3.00033,-1.518253 -0.0894,-0.347266 -3.45095,1.311031 -0.67696,-0.53175 -2.93109,0.122473 -0.1204,1.917195 1.42317,-0.0031 c 0.0465,-0.01397 0.11246,-0.02851 0.14521,-0.04186 0.15247,-0.06208 0.17352,0.07304 0.15192,0.242879 l -0.15554,0.0021 -0.74207,0.0832 -0.154,0.192753 -0.45734,0.0072 -0.57154,0.117822 -0.16536,-0.03359 -0.0424,-1.786455 -1.84795,-2.027783 -1.13895,-0.08475 0.0558,-1.103809 -0.002,-0.0015 -0.0837,-0.0088 -3.780135,-0.03772 -0.275435,3.371887 -2.354895,-0.126607 -0.588595,-2.385901 -0.928109,-0.03669 -0.06305,-0.183968 -0.326078,-0.01344 c -1.88e-4,-0.0011 -3.32e-4,-0.002 -5.17e-4,-0.0031 l -0.764811,-0.04289 0.08268,-1.664498 0.371554,-0.186035 -0.361219,-0.01912 0.03928,-0.797368 0.156579,-0.226859 z m 6.766512,2.459282 h 1.255217 v 0.33693 h -1.255217 z m -1.327051,0.0041 h 1.269173 v 0.316776 h -1.269173 z m 2.628778,0.01602 h 1.08831 v 0.348816 h -1.08831 z m -1.298626,0.367936 h 1.230936 v 0.286287 h -1.230936 z m -1.360641,0.01395 h 1.296045 v 0.258899 h -1.296045 z m 2.662887,0.0026 h 1.07074 v 0.347783 h -1.07074 z m -1.947168,0.773596 h 1.033528 v 0.996322 h -1.033528 z m 1.132747,0.0031 h 1.033531 v 0.996322 h -1.033531 z m -7.380945,0.204639 h 1.219564 v 1.700671 h -1.219564 z m -1.507401,0.04341 h 1.240751 V 37.4804 h -1.240751 z m 11.779127,0.1757 1.17925,1.238684 -1.25728,-0.02119 z m 19.235,4.056083 a 0.2752361,0.26483846 0 0 1 0.27492,0.2651 0.2752361,0.26483846 0 0 1 -0.27492,0.264583 0.2752361,0.26483846 0 0 1 -0.27544,-0.264583 0.2752361,0.26483846 0 0 1 0.27544,-0.2651 z m -39.097872,0.913123 h 1.302246 v 1.276924 h -1.302246 z m -0.251664,0.04186 -0.04496,1.203028 -2.337842,0.0186 0.02532,-0.675411 z" /></g></svg>
