<?xml version="1.0" encoding="UTF-8" standalone="no"?>
<!-- Created with Inkscape (http://www.inkscape.org/) -->

<svg
   width="67.882683mm"
   height="21.017839mm"
   viewBox="0 0 67.882683 21.017839"
   version="1.1"
   id="svg1"
   xml:space="preserve"
   xmlns="http://www.w3.org/2000/svg"
   xmlns:svg="http://www.w3.org/2000/svg"><defs
     id="defs1" /><g
     id="layer2"
     transform="translate(-22.39398,-132.22087)"><path
       id="path3-7-8"
       style="display:inline;fill:#000000;stroke-width:0.169639"
       d="m 37.964091,132.22087 -1.490348,5.2e-4 -1.152902,0.72967 -1.11466,-0.23513 -1.060917,-0.26768 -0.937411,0.0899 h -0.938444 l -0.765845,0.43098 -0.435632,0.45269 -0.494027,0.3545 -0.209289,0.58911 -0.077,1.16324 -0.84646,0.0274 -0.476973,0.11058 -0.822172,0.77153 -0.267684,-0.31471 -0.361219,0.0641 -0.695564,1.48983 -1.257288,0.57775 c 0,0 -0.827722,0.88816 -1.248503,1.38027 -0.420779,0.49211 -0.478157,1.31374 -0.738973,1.93425 -0.26082,0.62051 -0.121293,0.74594 -0.164331,1.1436 -4.52e-4,0.005 0.14847,0.0105 0.176217,0.016 -0.03241,0.006 -0.191364,0.0109 -0.190686,0.0171 0.04303,0.39771 -0.09649,0.52257 0.164331,1.14308 0.260817,0.62046 0.318191,1.44265 0.738973,1.93476 0.420779,0.49211 1.248503,1.38028 1.248503,1.38028 l 1.257804,0.57826 0.695048,1.48932 0.361735,0.0641 0.267684,-0.31471 0.821655,0.77153 0.476974,0.11059 0.846976,0.0279 0.07648,1.16272 0.209807,0.58911 0.494026,0.3545 0.435116,0.45268 0.765845,0.43099 h 0.938444 l 0.93741,0.0899 1.060917,-0.26768 1.115178,-0.23461 1.152901,0.72967 h 1.490348 v -0.44339 h 3.018938 l -0.04909,-0.36483 0.265617,0.031 0.03204,0.16227 0.255282,0.28835 h 1.033012 l 0.176733,-0.37413 1.997811,0.032 0.125574,0.34158 1.025777,0.0186 0.157613,-0.40618 1.038179,0.0687 7.630542,0.43564 6.310726,-0.36484 5.167127,-0.7307 6.36912,-1.42524 1.307414,-0.4532 5.365564,-2.0743 3.309359,-1.14928 2.024682,-0.49144 2.444295,-0.41083 1.738912,-0.27957 c 0,0 -0.0135,0.41808 0.20774,0.28681 0.221229,-0.13128 0.492326,0.0177 0.663008,-0.39378 0.170677,-0.41142 0.430841,-0.64242 0.51263,-1.23455 0.06466,-0.46774 0.128651,-0.93171 0.19327,-1.39268 h 0.0047 l -5.17e-4,-0.4408 c -0.06131,-0.43781 -0.122113,-0.87736 -0.183451,-1.32137 -0.0818,-0.59212 -0.341959,-0.82313 -0.51263,-1.23455 -0.170683,-0.41142 -0.441766,-0.26249 -0.663009,-0.39377 -0.221223,-0.13127 -0.207739,0.28577 -0.207739,0.28577 l -1.738912,-0.27905 -2.444295,-0.41031 -2.024683,-0.49248 -3.309359,-1.14928 -5.365564,-2.0743 -1.307413,-0.45216 -6.369121,-1.42576 -5.167126,-0.73122 -6.310726,-0.36432 -7.630542,0.43615 -1.038179,0.0682 -0.157614,-0.40618 -1.025777,0.0186 -0.125573,0.34107 -1.997811,0.0315 -0.176734,-0.37362 h -1.033012 l -0.255281,0.28887 -0.03204,0.16175 -0.265616,0.0315 0.04857,-0.36535 h -3.01842 z m 0.776697,2.52336 5.197615,0.15761 0.91674,1.12758 4.495333,-0.13126 1.74563,2.29185 3.389457,1.24954 0.774113,0.80202 0.01964,2.60708 h -0.0956 l -0.01654,2.22622 -0.774113,0.80201 -3.389457,1.24954 -1.74563,2.29185 -4.495333,-0.13126 -0.916739,1.12758 -5.197616,0.15761 -1.935282,-1.5136 -0.793234,-2.95847 -2.931087,-1.21802 -0.06821,-2.46755 h 0.105937 l 0.05478,-1.98075 2.931087,-1.2175 0.793233,-2.95848 z m -11.879895,1.81384 0.139009,0.28319 -0.269751,0.0424 -0.01085,-0.0248 z m 33.958134,0.84078 -0.256832,2.16627 0.658358,-0.5612 0.698665,-0.0692 0.992187,-0.5519 1.825212,0.0243 1.424202,0.38033 1.123446,0.82941 0.586011,0.74776 1.366325,0.0501 5.701461,0.27595 -0.0078,0.72812 -5.690609,-0.0858 -1.189074,0.047 0.05478,0.73691 6.765995,0.0682 -0.0088,0.817 -0.0093,5.2e-4 v 0.002 h -0.03876 l -6.612,0.27802 -0.148828,-0.0103 -0.03772,0.38499 1.188042,0.0739 5.690608,0.0403 -0.0083,0.7276 -5.705595,0.14987 -1.367358,0.0191 -0.602031,0.73432 -1.142049,0.80512 -1.43247,0.3483 -1.825212,-0.016 -0.979268,-0.57361 -0.697116,-0.0847 -0.645955,-0.57568 0.208773,2.17145 -2.738851,-0.447 0.547253,-1.96629 -1.012858,-1.09813 -0.0036,-1.788 0.01499,-5.2e-4 0.03256,-1.33893 1.036629,-1.07539 -0.503845,-1.97766 z m -30.93868,12.69741 0.24753,0.0889 -0.123507,0.25218 -0.141593,-0.30076 z" /></g></svg>
