<?xml version="1.0" encoding="UTF-8" standalone="no"?>
<!-- Created with Inkscape (http://www.inkscape.org/) -->

<svg
   width="138.91293mm"
   height="34.099903mm"
   viewBox="0 0 138.91293 34.099903"
   fill= rgb(19, 19, 19)
   version="1.1"
   id="svg1"
   xml:space="preserve"
   xmlns:inkscape="http://www.inkscape.org/namespaces/inkscape"
   xmlns:sodipodi="http://sodipodi.sourceforge.net/DTD/sodipodi-0.dtd"
   xmlns="http://www.w3.org/2000/svg"
   xmlns:svg="http://www.w3.org/2000/svg"><sodipodi:namedview
     id="namedview1"
     pagecolor="#ffffff"
     bordercolor="#000000"
     borderopacity="0.25"
     inkscape:showpageshadow="2"
     inkscape:pageopacity="0.0"
     inkscape:pagecheckerboard="0"
     inkscape:deskcolor="#d1d1d1"
     inkscape:document-units="mm" /><defs
     id="defs1" /><g
     inkscape:groupmode="layer"
     id="layer2"
     inkscape:label="Layer 2"
     transform="translate(-24.360907,-24.308269)"><path
       id="path1"
       style="display:inline;fill:#ffffff;stroke-width:0.30892"
       d="m 95.865807,24.308269 -0.222378,0.353827 -0.01052,3.097758 0.369054,0.128365 c 0,0 -0.769526,3.223008 -0.884258,3.903604 h -0.06782 v 0.524978 h 0.916328 v 0.754281 l -0.28862,0.181575 -0.684485,3.266718 -0.305441,-0.08941 v 0.874963 l -0.44318,0.128915 -0.190837,-0.773481 -0.215543,-0.06309 v 0.438854 l -0.770176,0.224364 v -5.0918 h -0.362219 v 5.182314 L 91.67846,38.46679 90.902501,37.623642 v 1.121272 l -0.595638,0.647308 v 0.718624 l 0.335408,0.210649 v 0.466282 l -0.624027,0.374672 -7.303796,-5.985964 0.413213,-0.447083 -0.217647,-0.262216 -0.508894,0.424592 -0.428987,-0.52498 0.02365,-0.586418 h -0.306494 v 0.479997 l -0.222379,0.189805 -0.118812,-0.703264 0.353283,-0.315427 v -0.457504 l -0.29966,-0.148662 -0.01734,-0.533756 0.40638,-0.09106 v -0.3637 l -0.650839,-0.04333 -0.05993,-0.323655 0.324369,-0.03401 -0.09726,-0.34121 -0.75388,0.06911 -0.03943,0.598485 h -0.502587 l -0.118286,0.389484 0.507318,0.07899 -0.07991,0.958895 0.393237,0.569414 -0.580918,0.05869 -0.07045,-0.689547 -0.246037,-0.0384 -0.273899,-0.531562 H 79.39611 l -0.0368,0.706006 0.420047,0.184867 -0.03102,0.396614 h -0.313853 l -0.158767,0.568315 h -0.190303 l -0.08096,0.388934 -0.253922,0.39826 1.063527,0.162377 -0.875321,3.886597 -0.292825,-0.02908 -0.144572,0.540339 -1.205996,-0.04224 -0.03733,0.2869 -0.324894,0.07296 -0.02471,0.365894 h -0.316469 l -0.02103,-0.286886 h -0.365374 l 0.05467,1.074644 0.293877,0.03346 0.116709,-0.418008 h 0.234471 l 0.301236,0.296774 -0.130379,0.511265 h -1.999304 l -0.184001,1.271031 0.917377,0.480544 H 74.25355 v 0.415266 l 1.061423,0.309391 -0.07307,0.266056 h -3.775705 l 0.07097,0.556794 1.001493,1.075742 h 0.81013 l 1.341107,1.640763 0.07307,0.572157 -2.614394,0.09875 -0.05573,1.012655 0.53413,0.232593 0.235521,0.311585 1.727509,0.227108 v 1.023625 h -0.373786 l -0.227636,0.454763 H 72.75998 l -0.187681,0.528818 h -4.334546 v -0.511264 h 1.022522 l 0.07519,-1.895299 0.354334,-0.125074 -0.03049,-0.956701 -2.999745,-10e-4 -0.08149,0.801457 H 65.84311 l -0.158767,0.25289 -4.737241,-0.0801 -0.04153,0.397162 -0.415842,0.0093 -0.04469,0.336271 -3.413485,-0.04882 -0.158767,0.274832 -5.399121,-0.06802 -0.129326,0.524977 8.244305,0.207359 -0.19399,0.787194 h -8.44881 l -0.675547,0.733434 H 41.69216 l -0.375889,0.707103 h -0.420049 l -0.108823,0.441049 h -0.757032 l -0.223957,-0.421849 -0.130903,0.0384 -0.239202,0.450373 -0.313329,-0.09161 -0.19399,-0.364796 -0.332253,-0.0971 -0.129851,0.524979 H 38.140411 L 37.8397,53.393918 h -3.027608 l -0.106721,0.431175 H 33.55774 l -0.101458,-0.410355 h -0.222909 l 0.02471,0.750988 h -0.713925 v -0.639628 h -0.281259 l -0.07255,0.650601 H 31.28296 L 31.076879,53.339584 H 29.03026 l -0.119864,0.614945 -1.747485,0.08832 -0.01314,-0.368088 -0.221852,-0.11465 -0.08884,-0.151954 2.172791,-3.798279 0.0053,0.0043 0.533604,-0.674736 4.381856,-1.644606 0.265488,0.0043 v -0.245208 l -1.32954,-0.02249 -4.35452,1.029661 -3.389828,3.077462 -0.04521,2.577169 0.384826,0.418557 0.02839,-1.614982 0.732851,1.042826 -0.0326,0.63579 H 26.04374 l -0.03733,-0.351632 -0.417945,-0.08448 -0.119339,0.373574 -0.733902,-0.06802 -0.129851,1.460834 -0.05258,2.324278 -0.191886,0.435562 134.006513,0.120137 -0.0553,-1.127306 0.31753,-0.556795 0.90686,-0.866188 1.14344,-0.887034 2.59389,-2.119114 v -1.004974 l -0.16981,-0.04937 -0.12512,-8.173652 -0.33067,-0.02468 0.13826,8.106176 -0.0857,-0.02468 -0.57881,0.628658 -0.40166,-0.437208 -0.14772,0.597389 -0.47,-0.137142 -0.33382,-0.628109 -0.35697,0.67035 h -0.8117 l -0.46263,-0.501939 -0.32227,0.607812 h -0.35066 l -0.42845,-0.806394 -0.24866,1.008815 h -0.63563 l -0.24709,-1.000587 -0.42425,0.461345 -1.76904,0.514556 -0.48472,-0.912267 v 1.094392 l -0.60983,-0.177188 -0.24866,-1.007717 -0.26076,1.055442 -0.24656,-0.268248 h -0.53938 v -0.584773 h -0.4742 v 0.698875 l -0.70815,0.205712 v -0.976924 h -0.41374 v 0.883194 h -0.83694 v -0.793778 h -2.14598 v 0.915011 h -0.26075 v -0.845891 h -0.37642 v 0.846987 h -0.75598 v -0.76141 h -1.53825 v 0.760314 h -0.54149 v -0.853571 h -0.51941 v 0.737274 h -1.26908 l -0.17402,-0.702715 h -0.64873 v 0.802555 h -2.26163 V 51.725065 L 138.717,50.986693 h -5.00378 l -0.47788,-0.299518 h -3.18848 l -0.62193,-0.675264 h -7.82583 v 2.571133 h -0.64032 v -2.674812 h -0.62507 v -0.430077 h 2.81679 l 0.15982,-0.27209 5.24666,0.06198 -0.032,-0.627012 -8.58865,-0.20681 -0.77491,-0.76964 -8.08396,0.04663 -0.23184,-0.939695 h -2.76264 l -0.29914,-1.211784 h -2.04768 v -0.729596 h 1.03095 v -1.211784 h -1.11926 v -0.519493 h 0.97363 v -1.196974 h -0.89057 l -0.11356,-0.458602 h 0.69185 l 0.0578,-0.234786 h -0.75914 l -0.0726,-0.294034 h 1.68019 v -1.801494 h -0.81749 l -0.17401,-0.706554 h 0.76071 l -0.19189,-0.776223 h -1.21494 l -0.28651,1.161317 -0.0951,0.385643 h -1.49305 v -1.633085 l -0.20344,-0.127268 -0.21292,-0.865089 h -0.99991 l -0.66714,0.724109 h -1.0835 v -1.446573 l 0.34802,-0.377962 h 1.07194 l 0.27232,-1.102072 -0.3107,-0.09051 -0.0982,0.39826 -0.26497,-0.0768 -0.16297,-0.307197 h -0.50837 l -0.0905,-0.365895 h -0.897954 l -0.109346,-0.49755 h -1.21546 v 1.899139 h -0.857446 v -1.164609 l 0.253922,-0.275928 v -0.447082 l 1.110315,-1.120723 h 0.928939 l -0.07883,-0.320913 -0.573037,-0.621526 -0.04731,0.08942 0.01629,-0.802554 0.774907,0.0093 -0.0604,0.774028 0.44369,0.104221 -0.0199,-0.473413 0.29544,-0.02303 0.04,-0.876062 h -0.32593 l 0.0136,-0.68132 0.3128,0.01591 0.0279,-0.56996 h -0.33857 l -0.006,-0.44434 0.37432,0.02195 -0.0205,-0.356569 -0.65084,0.0071 -0.003,-0.202421 -0.14983,-0.56228 -2.050822,-0.01371 -0.382722,0.676383 -0.580918,-0.04388 -0.0368,0.453117 0.698153,0.03181 0.01946,0.282511 -0.663981,0.04937 V 29.174 l 0.602473,0.251244 0.0041,0.661023 -0.645582,0.02523 -0.01788,0.493711 0.727068,0.06857 -0.676598,0.780062 H 96.35079 l 0.05151,-1.514594 0.305443,-2.487204 0.348024,-0.373573 0.04048,-0.478351 -0.155087,-0.529916 -0.599844,-0.0181 -0.02997,0.360408 0.300185,0.06693 0.01157,0.251244 -0.205556,0.450373 -0.4395,-0.0083 0.0594,-2.38133 z m 2.559719,3.403311 0.756508,0.03292 -0.03943,0.303906 -1.116625,0.02139 0.01734,-0.196937 0.0878,-0.02195 z m 0.902133,0.03236 0.470517,0.01591 0.0389,0.296227 -0.435301,0.02195 z m -3.095952,0.317072 h 0.13143 l -0.245511,1.611141 c 0,0 -0.112561,1.575931 -0.129327,2.059322 l -0.05573,0.06034 h -0.59038 l 0.527294,-2.342383 z m 2.031899,0.280317 0.415842,0.0076 0.232893,0.288546 -0.456322,0.227655 h -0.404277 l -0.189259,-0.26386 z m 1.096121,0.04718 0.590907,0.02085 0.213446,0.238078 -0.248666,0.179382 -0.648213,0.0066 -0.197144,-0.232591 z m 0.292825,0.710394 0.403748,0.129462 -0.0499,0.883194 -0.832738,0.03017 0.02314,-0.922691 z m -1.383164,0.01262 h 0.416895 l 0.28599,0.170604 -0.04942,0.814623 -0.9526,0.02139 0.02156,-0.778418 z m 0.294928,1.589748 0.394289,0.06419 0.04311,0.752633 0.106721,0.301713 -0.03102,0.05869 h -0.705514 l 0.141945,-0.293483 z m -0.295979,0.0017 -0.01892,0.83437 -0.114607,0.34121 H 97.81675 L 97.590692,31.45396 h -0.03733 l 0.36958,-0.619882 z m -1.829498,1.585907 h 0.857447 v 0.824497 l -0.36117,0.392774 v 0.200775 l -1.828445,5.263503 -0.129853,-0.03786 -0.466312,-0.292386 -0.123016,-0.496453 h 0.55726 l 0.276001,-1.120723 0.476826,-0.29842 -0.452117,-0.132206 0.865331,-2.927702 h 0.529923 V 33.07227 l -0.201875,-0.379608 z m 1.322707,0.01152 h 0.853764 l -0.806976,0.845342 -0.04679,-0.04993 z m -0.55621,1.645702 0.19031,0.119588 v 1.37416 3.678142 l -1.939373,3.057166 -0.368528,-0.106971 v -2.43454 l 0.728644,-0.457506 -0.39271,-0.113553 z m -15.635897,1.037341 0.534655,0.851925 0.09095,-0.09819 2.156495,8.824251 -0.368002,0.220524 -0.204505,0.0373 -0.851137,0.930369 -0.07887,-0.860701 -0.848508,-0.08118 0.06046,-1.765838 -0.416895,-0.03181 -0.08043,0.896908 -0.170333,-0.102585 -0.03365,-1.002233 -0.03733,-7.418273 z m 0.964692,0.386739 7.035156,6.061118 -1.815305,1.088907 -5.316583,-6.867474 -0.0368,-0.137691 z m -2.296335,0.05815 0.07412,0.01097 0.03943,0.533755 0.310699,0.02085 -0.07938,0.809686 -0.525192,0.03346 -0.05836,0.400455 0.627706,0.254536 -0.09621,4.405542 -0.321214,-0.441047 -0.276528,0.488224 -0.131429,-0.436111 -0.351705,-0.0927 -0.01261,-2.07852 -0.114081,-0.02359 z m 19.183966,0.310489 0.0053,1.029113 -0.53886,0.0033 -0.05573,-0.964381 z m -0.823799,0.02962 0.02734,1.048861 -0.830108,0.06583 -0.0063,-0.969868 z m -15.997066,0.482739 4.801906,6.479676 -2.610714,1.566159 z m 10.676801,3.208021 0.543592,0.122879 -0.05678,0.67364 -0.506266,0.0061 z m -0.700255,0.03292 0.518358,0.0055 -0.01104,0.740018 -0.482083,-0.02195 z m 1.473061,0.0395 0.525718,0.110261 -0.03154,0.624818 -0.564622,-0.02195 z m 3.670035,0.116844 0.90844,0.26441 v 2.768618 l -0.320162,0.25289 -0.406905,0.02359 0.041,-0.692841 -0.291775,5.49e-4 0.02787,0.554053 -0.696577,0.02578 v -0.507974 l -0.188732,-0.176638 -0.09989,0.172798 0.02838,0.449825 -0.928944,-0.04937 v -0.460797 l -0.03207,-0.0093 z m 4.875511,1.239213 0.75597,0.108616 -0.0315,1.091649 -0.77912,-0.09545 z m -0.93578,0.0757 0.73916,0.04498 0.0626,1.029661 -0.84799,0.02962 z m 1.84159,0.01701 0.75913,0.09381 0.0657,0.88484 -0.8096,0.08228 z m 1.73803,0.03292 0.2271,0.913913 -0.93053,0.05815 -0.0342,-0.959442 z m -14.597614,0.390031 v 0.260022 l -0.008,0.0038 -0.195567,-0.160182 z m -0.693947,0.354375 0.184526,0.159085 -2.054505,1.021981 -0.125646,-0.161828 z m -11.193058,0.32969 1.945682,0.116296 -0.01367,0.732337 -2.292655,0.03017 0.001,-0.382352 0.386402,0.01591 z m -0.683958,0.07734 -0.03995,0.821205 -1.696491,0.164022 -0.111452,-0.920495 z m 12.475808,0.108616 0.09516,0.08228 v 3.895377 l -2.286347,-2.954034 z m -2.968729,0.695034 0.11934,0.160182 -2.839403,1.412013 -0.04363,-0.161279 z m 7.729628,0.0395 0.231316,0.06693 1.836332,1.443829 h -1.387369 v 1.858546 l -0.680279,0.196935 z m -14.621787,0.05979 0.03838,1.037341 -1.970391,-0.03017 -0.0021,-1.002233 z m 17.527956,0.03346 0.166126,0.180478 -0.243933,0.319815 -0.270744,-0.235884 0.32647,-0.258923 z m -1.744858,0.09161 1.026201,0.0099 1.100853,1.40543 -0.203979,0.825045 -0.486814,-0.914461 h -0.376415 z m 2.062916,0.255083 0.07885,0.08558 v 1.012655 l -0.0058,0.02359 -0.375363,-0.698875 z m -10.572709,0.03456 2.682738,3.619447 v 0.516201 h -1.294318 l -0.111451,-0.450922 h -1.181813 v 0.548568 H 87.13311 l -0.01525,-1.065319 -1.50513,-0.0076 -0.01314,0.620978 -0.646633,-2.375846 z m -3.595384,1.127306 0.02365,0.09819 -0.338037,0.06199 z m -11.526362,0.289643 0.02734,0.996747 -0.430563,-0.245758 -0.0489,-0.74276 z m 0.158242,0.08558 0.407432,0.04279 0.02787,0.799262 -0.379568,-0.02359 z m 2.822053,0.0093 0.0068,0.852473 -0.796988,0.09051 -0.03207,-0.923788 z m 8.666982,0.111359 0.652416,2.669328 0.05731,0.770736 -1.199689,1.524469 h -0.760713 v -0.337319 h -0.619821 l -0.05204,-0.212295 0.971525,-0.795971 v -0.785 l -0.260756,-0.0023 -0.06466,0.316523 -0.157715,0.08612 -0.119864,-0.994552 -0.250767,-0.09381 -0.16455,1.119077 h -0.82906 l -0.172961,-0.108068 0.806976,-1.062027 0.0184,-0.01865 v -0.0061 l 0.17191,-0.227106 0.477352,-0.512362 0.0026,-5.49e-4 v -0.0016 l 1.038297,-1.115319 z m -10.824528,0.06253 0.943139,0.01096 0.05415,0.769641 -0.944189,0.08174 -0.109349,-0.209553 z m 8.619669,0.711492 0.174538,0.02303 -0.168755,0.106423 z m -1.810046,0.16841 h 1.417334 l 0.03049,0.191998 -0.724964,0.454213 h -0.324368 v 0.202971 l -0.283889,0.178833 h -0.114605 z m -5.901183,0.176638 0.156665,0.813526 -0.262859,-0.04937 -0.316482,-0.195838 -0.204504,-0.537596 z m 7.964099,0.118491 -0.214493,0.390032 -0.01314,-0.290741 z m 21.34414,0.01427 0.041,1.337955 -2.56235,-0.06253 -0.0716,-1.237019 z m -2.9782,0.02797 0.0589,1.281452 -0.8585,-0.07734 -0.0299,-1.201912 z m -2.316829,0.05376 -0.01367,1.098232 -0.905812,-0.0406 0.17191,-1.001135 z m 1.248582,0.0017 -0.02787,1.144312 -0.937354,-0.05815 0.0073,-1.072997 z m -17.857057,0.145371 0.09672,0.599034 -0.582496,1.06093 -0.262859,-0.165667 H 80.41443 v -0.689001 h 0.365373 v 0.233141 l 0.429511,0.125074 V 46.96815 l 0.1982,-0.05815 -0.01734,-0.07022 z m 3.865077,0.33682 0.955754,0.04224 c 0,0 0.02367,0.401156 0.03207,0.664864 L 86.474913,47.409483 H 85.85036 Z m -4.970135,0.143176 v 0.0099 h -0.02365 z m -48.093185,0.21015 v 5.49e-4 l 0.719182,0.01097 -1.035138,0.381254 -0.35118,0.113005 -0.08884,-0.339563 c 0.429404,-0.09493 0.755981,-0.166216 0.755982,-0.166216 z m 52.860393,0.149758 0.151407,0.07241 0.386403,0.419653 v 0.437757 l -0.53781,-0.487128 z m -53.887646,0.07735 0.06151,0.37522 -0.90108,0.29074 -0.100407,-0.454214 c 0.340755,-0.07846 0.636846,-0.144275 0.939983,-0.211746 z m -1.244373,0.28306 0.08884,0.484933 -0.660826,0.212844 -0.203979,-0.511813 c 0.230349,-0.05782 0.496668,-0.120655 0.77596,-0.185964 z m 55.132019,0.142079 0.53781,0.843147 v 0.482739 l -0.274951,0.0801 V 48.65107 h -0.262859 z m -56.05886,0.08392 0.148252,0.538694 -0.530974,0.170603 -0.353808,0.66651 -0.02156,-0.03621 -0.3475,-0.01591 0.490495,-1.062574 -0.05941,-0.0043 c 0.03098,-0.02631 0.08388,-0.07316 0.09463,-0.08118 0.04129,-0.03083 0.271232,-0.09585 0.579867,-0.175542 z m 43.478959,0.683515 0.470518,0.03675 -0.06782,0.891969 -0.515204,-0.339562 z m 12.439008,0.05376 v 0.488225 h -0.5131 l -0.155612,0.632499 h 0.947869 v 0.578738 l 0.232892,0.06747 0.143522,0.579287 h -1.591873 v -1.02582 h -0.546747 l 1.319551,-1.267192 z m -57.19073,0.04224 -1.578204,3.573367 c 0,0 -0.0331,0.475177 -0.04942,0.763057 l -0.0016,-0.0023 -0.194516,0.127267 -0.978886,-1.287486 0.01209,-0.690098 c 0,0 1.772904,-1.584826 2.79051,-2.483912 z m 46.083892,0.0017 0.05415,0.475608 0.260756,0.105326 -0.02629,0.385094 -0.928943,-0.08612 0.01104,-0.874416 z m -6.832754,10e-4 -0.06519,0.649504 -0.677124,0.01152 0.06256,-0.61659 z m 0.15719,0.0093 1.058269,0.01975 -0.06046,0.628659 -1.049858,-0.0023 z m 1.800057,0.01481 -5.25e-4,0.569961 -0.624027,0.06857 0.04258,-0.617138 z m -40.664267,0.656634 0.01314,0.01097 -0.01525,-0.0033 z m 47.891309,0.139884 0.07885,1.796558 -1.517747,-0.243016 z m 2.278461,0.05101 0.87164,0.08887 0.0594,1.625954 -0.971002,0.05157 z m -50.699167,0.0017 0.351179,0.10752 -0.314904,0.618784 -0.336985,-0.0757 z m 48.735086,0 0.910543,0.01207 0.02944,1.669837 -0.93052,0.0395 z m 3.179015,0.02853 1.279596,1.57 h -1.29642 z m -52.402493,1.029112 0.312803,0.08559 -0.431089,0.846439 -0.277053,-0.12288 0.291246,-0.583127 z m 85.970618,0.390032 -0.005,1.326984 -0.94417,-0.02798 0.004,-1.286391 z m -1.42522,0.0061 0.0636,1.271579 -3.16376,0.02798 0.13458,-1.265544 z m 2.03401,0.005 1.31166,0.137141 0.0599,1.081227 -1.52668,0.0066 z m 4.05432,0.07845 1.49936,0.125621 0.0647,1.054347 -1.64392,-0.05925 z m -2.08657,0.03511 1.38738,0.02139 0.0552,1.093294 -1.55613,-0.02743 z m 16.95546,0.158536 0.96784,0.02907 0.35959,0.132753 -0.0253,1.387327 -0.96101,-0.03402 0.0405,-0.33682 0.45527,-0.195289 -0.70552,-0.114103 -0.0594,0.585321 h -0.50888 l 0.0184,-0.3637 0.14615,-0.135496 -0.19767,-0.175542 -0.3496,0.190354 0.22395,0.145919 0.0179,0.358762 -0.96047,0.03072 -0.15666,-0.345048 -0.31018,-0.01975 0.0274,-0.190351 -0.50574,-0.148662 0.0395,-0.545825 2.44406,0.02798 z m 2.39726,0.02414 2.17648,0.0395 0.32647,0.133303 5.2e-4,1.352765 -1.45045,-0.05211 -0.0716,-0.456408 0.21713,-0.0971 -0.20661,-0.178833 -0.24447,0.164571 0.16667,0.136044 -0.0541,0.498647 -1.14397,-0.0017 0.0269,-1.295715 z m -108.420865,0.36315 0.250768,0.171153 -0.730223,1.435053 -0.117759,-0.201874 0.206082,-0.622074 z m 26.614461,0.419106 2.07974,0.05925 -0.06466,0.579835 -2.138619,-0.01591 z m -2.705869,0.01645 0.876897,0.0779 -0.06834,0.475609 -1.30746,0.0093 z m 5.612036,0.01261 -0.03838,0.591905 -0.612988,-0.0104 0.05258,-0.533755 z m -4.418657,0.01371 1.175505,0.0028 -0.08517,0.566121 -1.202317,-0.03511 z m -9.001339,0.69723 -0.159293,0.864541 -1.678091,-0.177736 0.301237,-0.640177 z m 1.997728,0.0373 -0.07728,0.890872 -1.813201,-0.04718 0.08043,-0.828336 z m 0.283887,0.01261 1.398934,0.03566 -0.01629,0.803652 -1.529838,0.03072 z m 2.622806,0.0083 -0.0095,0.845342 -1.029881,0.0088 0.01315,-0.776223 z" /></g></svg>
