<?xml version="1.0" encoding="UTF-8" standalone="no"?>
<!-- Created with Inkscape (http://www.inkscape.org/) -->

<svg
   width="33.976738mm"
   height="34.318321mm"
   viewBox="0 0 33.976738 34.318321"
   version="1.1"
   id="svg1"
   xml:space="preserve"
   xmlns:inkscape="http://www.inkscape.org/namespaces/inkscape"
   xmlns:sodipodi="http://sodipodi.sourceforge.net/DTD/sodipodi-0.dtd"
   xmlns="http://www.w3.org/2000/svg"
   xmlns:svg="http://www.w3.org/2000/svg"><sodipodi:namedview
     id="namedview1"
     pagecolor="#ffffff"
     bordercolor="#000000"
     borderopacity="0.25"
     inkscape:showpageshadow="2"
     inkscape:pageopacity="0.0"
     inkscape:pagecheckerboard="0"
     inkscape:deskcolor="#d1d1d1"
     inkscape:document-units="mm" /><defs
     id="defs1" /><g
     inkscape:groupmode="layer"
     id="layer5"
     inkscape:label="Layer 5"
     transform="translate(-24.984005,-143.79794)"><path
       id="path247"
       style="display:inline;fill:#ffffff;stroke-width:0.271079"
       d="m 40.116414,143.79794 v 3.19826 l -0.646472,0.0196 0.646472,0.58188 v 1.70997 h -0.226859 v 1.08986 l -0.310059,-0.0103 -0.393257,0.003 v 0.51005 l 0.703316,-5.2e-4 v 5.36092 l -0.02222,0.002 -0.551388,2.91403 -0.670243,0.13333 -0.283703,-0.46354 -0.294039,0.86144 -1.927015,-0.1788 -0.03669,0.53279 3.056144,0.0625 -0.237711,2.29598 -0.355534,-0.093 -0.09353,-0.98908 H 38.09845 l -0.104387,1.39991 0.865581,0.11317 -0.05426,1.39733 -0.517281,0.30748 0.45837,0.1664 -0.221175,1.93269 -0.364319,0.0765 -0.454752,-0.42167 v 0.91777 l 0.621667,0.15916 0.03876,1.35392 -0.72347,0.0222 0.0036,-0.75086 -0.845427,-0.0191 -0.03721,-0.20619 0.262,-0.0527 -0.07028,-0.40049 h -0.771529 l 0.02532,0.401 0.31781,0.009 0.0279,0.3824 -0.887284,-0.0527 -0.06925,-1.38286 0.305407,-0.19534 -0.03514,-0.47439 -0.314192,-0.20877 -0.0186,-0.66766 -0.67231,-1.16013 -0.520899,0.14676 -0.03927,1.25573 0.748792,-0.0512 -0.07648,0.30179 -0.761194,0.67955 -0.10542,0.78393 -0.408761,0.16072 0.475423,0.2899 -0.09147,1.02371 -0.771529,-0.078 -0.02325,-0.40514 0.340547,-0.0713 -0.109554,-0.54157 h -0.387056 l -0.09302,0.78704 -0.914156,-1.46141 -0.333313,0.19482 0.479557,0.51728 0.195854,0.39325 -0.19637,-0.006 0.06304,0.40205 h -0.484208 l 0.02532,-0.32557 -0.612882,0.0558 -0.02532,0.27027 -3.504695,0.57619 -2.036569,2.54559 -0.145727,-0.29921 -0.567407,0.31833 0.14056,0.4687 0.351916,-0.0455 c -0.0085,0.22702 -0.04841,1.30408 -0.0708,1.97404 l -0.07803,-0.20723 -0.267167,-0.0527 0.03359,1.24024 1.330668,3.20652 7.703405,-0.0186 -5.16e-4,0.0202 3.171899,0.006 v 0.0139 l 4.845699,-0.008 15.59388,0.0713 0.01809,-2.87579 1.203544,-3.08095 -0.147278,-4.27468 -0.250114,0.0667 -0.07648,2.99258 -2.10013,0.22117 -0.077,0.002 v 0.006 l -1.388546,0.14573 -0.02377,-0.38964 h -0.736389 l -0.04341,0.32091 0.299206,0.0842 0.0052,0.0372 -3.242179,0.34106 0.03359,-0.68161 0.335897,-0.3545 -0.153996,-0.30179 -0.502294,0.49093 -0.05994,0.88366 -0.969967,0.10181 -0.08113,-1.25833 h -0.247013 l 0.04082,1.28881 -1.597318,0.16795 -0.03462,-0.19947 -0.605131,0.009 c -0.0025,-0.75578 -0.009,-2.5627 -0.01085,-3.05356 l -0.09199,0.0114 -0.05426,-1.60713 0.751892,0.005 0.01654,-0.32195 0.886251,-0.15296 0.690913,-0.49248 -0.659908,-0.48731 -0.174149,-0.47025 3.839042,-0.3452 -0.03256,-0.30696 -4.010091,0.22945 -0.159164,-0.49351 -2.921785,0.0279 -0.510563,-0.39739 v -0.4377 l 0.589111,0.2005 -0.235128,-1.46399 -0.778247,1.10949 -0.353467,0.86714 0.03359,2.93418 -0.74259,-0.0403 -0.04703,-1.63246 -0.771012,-0.15658 -0.02429,-0.56018 -0.328662,-0.0925 -0.05013,0.69247 h -0.342615 l -0.01344,0.27492 0.567924,0.0682 0.0047,0.66714 -0.574642,-0.0294 -0.01964,-0.2527 -0.0062,0.13436 0.03514,0.80357 -0.397909,-0.0574 5.17e-4,-3.30781 0.381372,-0.13074 -0.391707,-0.29714 v -0.68782 l 0.860412,-0.20722 -0.977718,-0.25735 -0.132292,-0.48369 1.334286,-0.25425 -1.196826,-0.31367 -0.188619,-1.13637 1.20096,-0.0522 0.02325,-0.86765 -1.28881,0.0879 -0.04961,-1.49758 -0.552938,-0.61857 0.226343,-0.39997 0.33848,-0.13126 -5.16e-4,-0.29611 -0.647506,0.045 v -5.32732 l 0.842843,-10e-4 -0.09715,-0.45992 -0.745691,-0.0248 v -2.95848 l 0.712618,-0.48886 -0.712618,0.0217 v -3.18999 z m 2.991032,21.96455 0.119373,0.7581 -0.696598,-0.0754 -0.0052,-0.63976 z m -11.364164,2.73369 c 0,0 0.718098,0.0986 0.95343,0.16691 l -0.0155,0.24598 0.200505,0.0377 c 0.0493,0.25138 0.05943,0.58653 0.05943,0.58653 l 0.08992,-0.55862 0.852144,0.15916 0.05271,0.64906 -0.947229,0.0765 0.895553,0.51883 0.05633,1.44022 0.283704,0.0796 0.02532,0.46613 -0.28422,0.0501 5.16e-4,0.0119 -0.933276,0.0532 -0.645955,-0.0506 0.0248,-0.30851 0.352434,-0.0367 0.860412,-0.0429 0.05426,-0.58549 -2.301668,0.0992 -0.162781,-0.3514 -0.156579,0.38344 h -0.617017 l -0.146244,-0.31265 -0.519348,-0.0987 -0.10697,-0.57567 -0.772046,0.005 0.03411,1.24334 0.979268,-0.0455 0.162781,0.41393 1.581816,-0.0367 0.0124,0.28939 -1.755448,-0.0124 v 0.33073 l 1.747697,0.18913 -0.02222,0.23358 -0.608232,0.27078 0.06666,0.49765 1.062467,-0.12661 0.06821,0.47077 -1.389579,0.008 -0.08888,-0.7953 -0.243912,0.0532 -0.04289,0.74465 -0.630452,0.004 0.04496,-1.32809 h -0.864546 l -0.197404,0.37208 -0.47439,-0.10232 -0.10697,-0.56793 -0.74104,0.006 -0.19327,-0.21498 0.254765,-0.36225 0.06976,-0.27233 0.435115,-0.23358 -0.380855,-0.0377 0.163298,-0.40927 0.295589,0.0315 0.111104,-0.29559 -0.234611,-0.17467 0.0739,-0.32969 0.260966,0.24081 0.177767,-0.15089 -0.407727,-0.29198 0.168982,-0.44545 0.436666,0.11111 0.26355,-0.28939 0.227376,-0.0796 v 0.26251 l 0.40566,-0.0527 0.17725,-0.40979 0.741557,-0.0527 0.330729,0.23203 1.53169,-0.29714 -1.477946,-0.10697 -0.453203,-0.12454 -0.04961,-0.22945 0.378272,-0.0465 0.225826,0.19896 0.720369,-0.0946 z m -2.405021,0.23099 0.698665,0.0667 0.02119,0.27079 -0.150379,0.0372 -0.74414,-0.0734 z m -0.609782,0.35295 0.0031,0.0703 -0.443384,0.22944 -0.05271,-0.27802 -0.152962,0.0176 0.04186,-0.0134 z m -0.719853,0.0636 0.0083,0.3545 -0.313676,-0.0357 0.01809,-0.2253 z m -0.306958,0.33951 0.146245,0.13591 -0.703833,2.69751 0.0031,0.0186 -0.08268,-0.092 -0.10697,1.01803 -0.359668,0.0196 -0.798918,-1.64331 1.576648,-1.95647 0.322978,-0.15762 z m 30.773316,1.92909 -0.0098,0.37413 -1.094507,0.0941 0.01964,-0.38395 z m -2.167827,0.16794 c -0.0012,0.12848 -0.0033,0.26697 -0.0062,0.39275 l -1.334285,0.11472 -0.02429,-0.40205 z m -1.839681,0.14211 0.05323,0.4036 -3.375504,0.29145 0.0217,-0.43925 z m -3.651973,0.28267 -0.03049,0.44339 -0.877983,0.076 -0.02894,-0.447 z m -1.233,0.0956 0.01344,0.4501 -1.054199,0.0909 v -0.0816 c -0.153304,-8.9e-4 -0.317329,-0.004 -0.47749,-0.009 l -0.05633,-0.32866 z m -23.895182,0.11937 0.526066,1.08159 -0.226859,0.0124 v 0.23719 l -0.335897,-0.2899 z m 8.295101,0.76481 0.01137,0.37362 0.261482,0.0501 -0.0248,0.24184 -0.45837,-0.0331 -0.168982,-0.0532 -0.04031,-0.30902 h -0.157096 l -0.02429,0.25993 -0.623218,0.0765 0.09922,-0.60255 z m -8.247042,0.83251 0.251148,0.10852 5.16e-4,0.4563 -0.362252,0.0408 -0.03824,-0.10181 z m 8.469251,0.11007 -0.0072,0.3824 -1.504301,0.01 -0.05943,-0.38034 z" /></g></svg>
