<?xml version="1.0" encoding="UTF-8" standalone="no"?>
<!-- Created with Inkscape (http://www.inkscape.org/) -->

<svg
   width="33.622246mm"
   height="21.017839mm"
   viewBox="0 0 33.622246 21.017839"
   version="1.1"
   id="svg1"
   xml:space="preserve"
   xmlns="http://www.w3.org/2000/svg"
   xmlns:svg="http://www.w3.org/2000/svg"><defs
     id="defs1" /><g
     id="layer3"
     transform="translate(-21.779023,-187.36427)"><path
       id="path3-7-8-0"
       style="display:inline;fill:#000000;stroke-width:0.119387"
       d="m 29.490706,187.36427 -0.737939,5.2e-4 -0.571025,0.72967 -0.552421,-0.23513 -0.525549,-0.26768 -0.464054,0.0899 H 26.17463 l -0.379305,0.43098 -0.215491,0.45268 -0.24443,0.3545 -0.103869,0.58912 -0.03824,1.16323 -0.419612,0.0274 -0.236162,0.11059 -0.40721,0.77153 -0.132292,-0.31471 -0.179317,0.0641 -0.344165,1.48983 -0.622701,0.57774 c 0,0 -0.410148,0.88817 -0.618567,1.38028 -0.208415,0.49211 -0.236685,1.31374 -0.365869,1.93425 -0.129186,0.62051 -0.06034,0.74594 -0.08165,1.1436 -2.23e-4,0.005 0.07358,0.0105 0.08733,0.016 -0.01605,0.006 -0.09438,0.0109 -0.09405,0.017 0.0213,0.39771 -0.04803,0.52257 0.08113,1.14308 0.129186,0.62046 0.157456,1.44266 0.36587,1.93477 0.208414,0.49211 0.618566,1.38028 0.618566,1.38028 l 0.622701,0.57825 0.344682,1.48932 0.178801,0.0641 0.132808,-0.31471 0.40721,0.77153 0.236162,0.11059 0.419096,0.0279 0.03824,1.16272 0.10387,0.58911 0.244429,0.3545 0.216008,0.45269 0.378788,0.43098 h 0.465088 l 0.464571,0.0899 0.525549,-0.26769 0.551905,-0.23461 0.571024,0.72967 h 0.738456 v -0.44338 h 1.495 l -0.02429,-0.36484 0.131775,0.031 0.0155,0.16226 0.126607,0.28836 h 0.511596 l 0.08785,-0.37414 0.989604,0.032 0.06201,0.34158 0.507979,0.0186 0.07803,-0.40617 0.51418,0.0687 3.779614,0.43563 3.125908,-0.36484 2.559017,-0.7307 3.154846,-1.42524 0.647506,-0.4532 2.657718,-2.07429 1.639177,-1.14928 1.002523,-0.49145 1.210778,-0.41083 0.861447,-0.27956 c 0,0 -0.0068,0.41808 0.102836,0.2868 0.109576,-0.13128 0.244123,0.0177 0.328662,-0.39378 0.08453,-0.41141 0.212703,-0.64242 0.253214,-1.23455 0.03204,-0.46773 0.06411,-0.93171 0.09612,-1.39268 h 0.0021 v -0.44079 c -0.03036,-0.43781 -0.06109,-0.87736 -0.09147,-1.32137 -0.04052,-0.59213 -0.169192,-0.82313 -0.253731,-1.23455 -0.08453,-0.41142 -0.218559,-0.2625 -0.328145,-0.39378 -0.109571,-0.13127 -0.102836,0.28577 -0.102836,0.28577 l -0.861447,-0.27905 -1.210778,-0.41031 -1.002523,-0.49248 -1.639177,-1.14928 -2.657719,-2.07429 -0.647505,-0.45217 -3.154846,-1.42575 -2.559017,-0.73122 -3.125908,-0.36432 -3.779614,0.43615 -0.514181,0.0682 -0.07803,-0.40618 -0.507979,0.0186 -0.06201,0.34106 -0.989604,0.0315 -0.08785,-0.37362 h -0.511596 l -0.126608,0.28887 -0.0155,0.16175 -0.131775,0.0315 0.02429,-0.36535 h -1.495 z m 2.701127,3.84886 5.055506,0.0749 1.894458,2.27428 0.96945,2.11046 0.283703,2.3642 h -0.04031 l -0.266651,2.22363 -0.96945,2.11047 -1.894458,2.27428 -5.055505,0.0744 -0.268717,-1.20199 -3.001884,-1.75286 -1.139466,-3.75843 h -0.001 l 5.17e-4,-0.002 -0.02377,-0.078 h 0.04754 l 1.139465,-3.75843 3.001884,-1.75286 z m -8.200533,0.48835 0.06873,0.28318 -0.133842,0.0424 -0.0052,-0.0248 z m 21.280355,3.35741 a 2.8406618,2.8406618 0 0 1 2.840654,2.84066 2.8406618,2.8406618 0 0 1 -2.840654,2.84065 2.8406618,2.8406618 0 0 1 -2.840653,-2.84065 2.8406618,2.8406618 0 0 1 2.840653,-2.84066 z m -19.784839,10.18078 0.122474,0.0889 -0.06098,0.25218 -0.07028,-0.30075 z" /></g></svg>
